<svg width="151" height="17" viewBox="0 0 151 17" fill="none" xmlns="http://www.w3.org/2000/svg">
<path d="M10.3835 5.3608C10.3883 4.64583 10.1562 4.09896 9.6875 3.72017C9.22348 3.34138 8.57481 3.15199 7.74148 3.15199C7.14489 3.15199 6.61222 3.24669 6.14347 3.43608C5.67945 3.62074 5.30066 3.87642 5.0071 4.20312C4.71828 4.52509 4.54072 4.89205 4.47443 5.30398C4.41288 5.64962 4.44366 5.94792 4.56676 6.19886C4.6946 6.44981 4.87689 6.66051 5.11364 6.83097C5.35511 6.99669 5.62027 7.13636 5.90909 7.25C6.19792 7.3589 6.47727 7.44886 6.74716 7.51989L8.1108 7.8892C8.55114 8.00284 8.99858 8.15672 9.45312 8.35085C9.90767 8.54498 10.3172 8.80066 10.6818 9.1179C11.0464 9.43513 11.3187 9.82812 11.4986 10.2969C11.6785 10.7656 11.714 11.3267 11.6051 11.9801C11.4631 12.804 11.1293 13.5355 10.6037 14.1747C10.0781 14.8139 9.38447 15.3182 8.52273 15.6875C7.66098 16.0568 6.66193 16.2415 5.52557 16.2415C4.43655 16.2415 3.52036 16.0687 2.77699 15.723C2.03835 15.3774 1.49621 14.8873 1.15057 14.2528C0.804924 13.6136 0.681818 12.8561 0.78125 11.9801H2.99006C2.93797 12.5057 3.03267 12.9437 3.27415 13.294C3.52036 13.6397 3.866 13.8977 4.31108 14.0682C4.75616 14.2339 5.26042 14.3168 5.82386 14.3168C6.44886 14.3168 7.01941 14.2197 7.53551 14.0256C8.05161 13.8267 8.47775 13.5521 8.81392 13.2017C9.15009 12.8466 9.35606 12.4323 9.43182 11.9588C9.50758 11.5279 9.44602 11.1752 9.24716 10.9006C9.05303 10.6259 8.75947 10.3987 8.36648 10.2188C7.97822 10.0388 7.53551 9.88021 7.03835 9.7429L5.39773 9.27415C4.28504 8.95691 3.44223 8.49053 2.86932 7.875C2.2964 7.25947 2.09044 6.44508 2.25142 5.43182C2.39347 4.59375 2.74384 3.86222 3.30256 3.23722C3.86127 2.61222 4.55729 2.12689 5.39062 1.78125C6.22396 1.43087 7.12831 1.25568 8.10369 1.25568C9.08854 1.25568 9.92661 1.43087 10.6179 1.78125C11.3092 2.13163 11.8205 2.61458 12.152 3.23011C12.4834 3.84564 12.5994 4.55587 12.5 5.3608H10.3835ZM16.5856 9.52273L15.5202 16H13.3967L15.8114 1.45455H17.9066L17.0117 6.86648H17.1467C17.4923 6.27462 17.9563 5.80824 18.5387 5.46733C19.1258 5.12169 19.8455 4.94886 20.6978 4.94886C21.4459 4.94886 22.0733 5.10275 22.5799 5.41051C23.0913 5.71828 23.4511 6.17756 23.6594 6.78835C23.8725 7.39441 23.9057 8.15199 23.7589 9.06108L22.5941 16H20.4705L21.5785 9.31676C21.7111 8.51657 21.6069 7.89631 21.266 7.45597C20.9251 7.01089 20.3924 6.78835 19.668 6.78835C19.1613 6.78835 18.6926 6.89489 18.2617 7.10795C17.8356 7.32102 17.4757 7.63352 17.1822 8.04545C16.8886 8.45265 16.6897 8.94508 16.5856 9.52273ZM28.5671 16.2415C27.8758 16.2415 27.2721 16.1136 26.756 15.858C26.2399 15.5975 25.8588 15.2211 25.6126 14.7287C25.3664 14.2363 25.3024 13.6326 25.4208 12.9176C25.525 12.3021 25.7286 11.7955 26.0316 11.3977C26.3394 11 26.7134 10.6851 27.1538 10.4531C27.5941 10.2164 28.0723 10.0388 28.5884 9.92045C29.1045 9.80208 29.6254 9.71449 30.1509 9.65767C30.8138 9.58191 31.3512 9.51799 31.7631 9.46591C32.1798 9.41383 32.4923 9.33333 32.7006 9.22443C32.909 9.1108 33.0344 8.92614 33.0771 8.67045V8.62074C33.1765 8.00521 33.0865 7.52699 32.8072 7.18608C32.5326 6.84044 32.0543 6.66761 31.3725 6.66761C30.6623 6.66761 30.0657 6.82386 29.5827 7.13636C29.1045 7.44886 28.7518 7.79924 28.5245 8.1875L26.6211 7.73295C26.962 7.07008 27.3952 6.53504 27.9208 6.12784C28.4511 5.71591 29.0311 5.41761 29.6609 5.23295C30.2906 5.04356 30.9345 4.94886 31.5927 4.94886C32.0283 4.94886 32.4805 5.00095 32.9492 5.10511C33.418 5.20455 33.8441 5.3892 34.2276 5.65909C34.6159 5.92898 34.9047 6.31487 35.0941 6.81676C35.2835 7.31392 35.3119 7.96023 35.1793 8.75568L33.979 16H31.9052L32.1609 14.5085H32.0756C31.8957 14.7831 31.6448 15.053 31.3228 15.3182C31.0056 15.5833 30.6173 15.8035 30.158 15.9787C29.6987 16.1539 29.1684 16.2415 28.5671 16.2415ZM29.2915 14.5369C29.8834 14.5369 30.4066 14.4209 30.8612 14.1889C31.3204 13.9569 31.6921 13.6539 31.9762 13.2798C32.2603 12.901 32.4379 12.4962 32.5089 12.0653L32.7433 10.6591C32.6533 10.7348 32.4947 10.8035 32.2674 10.8651C32.0449 10.9266 31.7939 10.9811 31.5146 11.0284C31.2352 11.0758 30.9606 11.116 30.6907 11.1491C30.4255 11.1823 30.2054 11.2131 30.0302 11.2415C29.6135 11.2936 29.2229 11.3812 28.8583 11.5043C28.4985 11.6274 28.1978 11.8049 27.9563 12.0369C27.7148 12.2642 27.5633 12.5672 27.5018 12.946C27.4165 13.4716 27.542 13.8693 27.8782 14.1392C28.2191 14.4044 28.6902 14.5369 29.2915 14.5369ZM36.8075 16L38.6257 5.09091H40.6783L40.3871 6.82386H40.5007C40.7943 6.23674 41.2228 5.77509 41.7862 5.43892C42.3497 5.09801 42.951 4.92756 43.5902 4.92756C43.7275 4.92756 43.8838 4.93229 44.0589 4.94176C44.2341 4.9465 44.3762 4.95833 44.4851 4.97727L44.1442 7.00852C44.0637 6.98485 43.9169 6.95881 43.7038 6.9304C43.4908 6.89725 43.2706 6.88068 43.0433 6.88068C42.5462 6.88068 42.0845 6.98722 41.6584 7.20028C41.2322 7.40862 40.8748 7.69981 40.5859 8.07386C40.2971 8.44318 40.1101 8.86458 40.0249 9.33807L38.9311 16H36.8075ZM48.805 16.2202C47.735 16.2202 46.8496 15.9905 46.1488 15.5312C45.4528 15.0672 44.9651 14.4162 44.6857 13.5781C44.4064 12.7353 44.3614 11.7481 44.5508 10.6165C44.7354 9.49905 45.1071 8.5142 45.6658 7.66193C46.2246 6.80966 46.9206 6.14441 47.7539 5.66619C48.592 5.18797 49.5176 4.94886 50.5309 4.94886C51.1464 4.94886 51.7264 5.05066 52.271 5.25426C52.8202 5.45786 53.2866 5.77746 53.6701 6.21307C54.0536 6.64867 54.3188 7.21449 54.4656 7.91051C54.6171 8.6018 54.6123 9.44223 54.4513 10.4318L54.3306 11.1847H45.6516L45.9002 9.59375H52.4911C52.5906 9.03504 52.5645 8.54025 52.413 8.10938C52.2615 7.67377 52.0011 7.33049 51.6317 7.07955C51.2672 6.8286 50.8079 6.70312 50.2539 6.70312C49.6857 6.70312 49.1554 6.85227 48.663 7.15057C48.1706 7.44886 47.7586 7.83002 47.4272 8.29403C47.1005 8.75331 46.8945 9.2268 46.8093 9.71449L46.5607 11.1705C46.4376 11.9659 46.4589 12.6051 46.6246 13.0881C46.7951 13.571 47.0934 13.9214 47.5195 14.1392C47.9457 14.357 48.4783 14.4659 49.1175 14.4659C49.5295 14.4659 49.9106 14.4091 50.261 14.2955C50.6161 14.1771 50.931 14.0043 51.2056 13.777C51.4802 13.545 51.7099 13.2562 51.8945 12.9105L53.8406 13.2727C53.5801 13.8646 53.2061 14.383 52.7184 14.8281C52.2307 15.2685 51.6554 15.6117 50.9925 15.858C50.3344 16.0994 49.6052 16.2202 48.805 16.2202ZM68.212 5.09091L67.935 6.79545H61.7702L62.0472 5.09091H68.212ZM61.9194 16L63.9506 3.8267C64.0548 3.14489 64.2939 2.57907 64.668 2.12926C65.042 1.67472 65.4942 1.33617 66.0245 1.11364C66.5548 0.886363 67.1088 0.772726 67.6864 0.772726C68.1126 0.772726 68.4701 0.808238 68.7589 0.879261C69.0524 0.945549 69.2655 1.0071 69.3981 1.06392L68.6239 2.78267C68.5292 2.75426 68.4085 2.72112 68.2617 2.68324C68.1149 2.64062 67.9303 2.61932 67.7077 2.61932C67.1916 2.61932 66.801 2.74716 66.5359 3.00284C66.2755 3.25852 66.1003 3.62784 66.0103 4.1108L64.043 16H61.9194ZM72.8285 16.2202C71.7584 16.2202 70.873 15.9905 70.1722 15.5312C69.4762 15.0672 68.9885 14.4162 68.7092 13.5781C68.4298 12.7353 68.3848 11.7481 68.5742 10.6165C68.7589 9.49905 69.1306 8.5142 69.6893 7.66193C70.248 6.80966 70.944 6.14441 71.7773 5.66619C72.6154 5.18797 73.5411 4.94886 74.5543 4.94886C75.1699 4.94886 75.7499 5.05066 76.2944 5.25426C76.8436 5.45786 77.31 5.77746 77.6935 6.21307C78.0771 6.64867 78.3422 7.21449 78.489 7.91051C78.6405 8.6018 78.6358 9.44223 78.4748 10.4318L78.354 11.1847H69.6751L69.9237 9.59375H76.5146C76.614 9.03504 76.5879 8.54025 76.4364 8.10938C76.2849 7.67377 76.0245 7.33049 75.6552 7.07955C75.2906 6.8286 74.8313 6.70312 74.2773 6.70312C73.7092 6.70312 73.1789 6.85227 72.6864 7.15057C72.194 7.44886 71.7821 7.83002 71.4506 8.29403C71.1239 8.75331 70.918 9.2268 70.8327 9.71449L70.5842 11.1705C70.4611 11.9659 70.4824 12.6051 70.6481 13.0881C70.8185 13.571 71.1168 13.9214 71.543 14.1392C71.9691 14.357 72.5018 14.4659 73.141 14.4659C73.5529 14.4659 73.9341 14.4091 74.2844 14.2955C74.6396 14.1771 74.9544 14.0043 75.229 13.777C75.5037 13.545 75.7333 13.2562 75.918 12.9105L77.864 13.2727C77.6036 13.8646 77.2295 14.383 76.7418 14.8281C76.2541 15.2685 75.6789 15.6117 75.016 15.858C74.3578 16.0994 73.6287 16.2202 72.8285 16.2202ZM84.6058 16.2202C83.5357 16.2202 82.6503 15.9905 81.9496 15.5312C81.2536 15.0672 80.7659 14.4162 80.4865 13.5781C80.2071 12.7353 80.1622 11.7481 80.3516 10.6165C80.5362 9.49905 80.9079 8.5142 81.4666 7.66193C82.0253 6.80966 82.7214 6.14441 83.5547 5.66619C84.3928 5.18797 85.3184 4.94886 86.3317 4.94886C86.9472 4.94886 87.5272 5.05066 88.0717 5.25426C88.621 5.45786 89.0874 5.77746 89.4709 6.21307C89.8544 6.64867 90.1196 7.21449 90.2663 7.91051C90.4179 8.6018 90.4131 9.44223 90.2521 10.4318L90.1314 11.1847H81.4524L81.701 9.59375H88.2919C88.3913 9.03504 88.3653 8.54025 88.2138 8.10938C88.0623 7.67377 87.8018 7.33049 87.4325 7.07955C87.0679 6.8286 86.6087 6.70312 86.0547 6.70312C85.4865 6.70312 84.9562 6.85227 84.4638 7.15057C83.9714 7.44886 83.5594 7.83002 83.228 8.29403C82.9013 8.75331 82.6953 9.2268 82.6101 9.71449L82.3615 11.1705C82.2384 11.9659 82.2597 12.6051 82.4254 13.0881C82.5959 13.571 82.8942 13.9214 83.3203 14.1392C83.7464 14.357 84.2791 14.4659 84.9183 14.4659C85.3303 14.4659 85.7114 14.4091 86.0618 14.2955C86.4169 14.1771 86.7318 14.0043 87.0064 13.777C87.281 13.545 87.5107 13.2562 87.6953 12.9105L89.6413 13.2727C89.3809 13.8646 89.0069 14.383 88.5192 14.8281C88.0315 15.2685 87.4562 15.6117 86.7933 15.858C86.1352 16.0994 85.406 16.2202 84.6058 16.2202ZM95.7795 16.2131C94.8941 16.2131 94.1436 15.9882 93.5281 15.5384C92.9173 15.0838 92.484 14.4375 92.2283 13.5994C91.9774 12.7566 91.949 11.7457 92.1431 10.5668C92.342 9.38778 92.7089 8.37926 93.244 7.54119C93.779 6.70312 94.4277 6.06155 95.19 5.61648C95.9523 5.1714 96.7738 4.94886 97.6545 4.94886C98.3316 4.94886 98.8571 5.0625 99.2312 5.28977C99.61 5.51231 99.8893 5.77273 100.069 6.07102C100.249 6.36932 100.384 6.6321 100.474 6.85938H100.595L101.497 1.45455H103.62L101.206 16H99.1317L99.4229 14.3026H99.2454C99.0797 14.5346 98.85 14.7997 98.5565 15.098C98.2676 15.3963 97.8983 15.6567 97.4485 15.8793C96.9987 16.1018 96.4424 16.2131 95.7795 16.2131ZM96.4968 14.402C97.1076 14.402 97.6545 14.241 98.1374 13.919C98.6251 13.5923 99.0299 13.1402 99.3519 12.5625C99.6786 11.9848 99.9059 11.3125 100.034 10.5455C100.162 9.78788 100.159 9.125 100.027 8.55682C99.8941 7.98864 99.6384 7.54593 99.2596 7.22869C98.8808 6.91146 98.3813 6.75284 97.761 6.75284C97.1218 6.75284 96.5655 6.91856 96.092 7.25C95.6185 7.58144 95.2302 8.03362 94.9272 8.60653C94.6289 9.17945 94.4206 9.82576 94.3022 10.5455C94.1791 11.2746 94.1744 11.9304 94.288 12.5128C94.4016 13.0952 94.6407 13.5568 95.0053 13.8977C95.3699 14.2339 95.8671 14.402 96.4968 14.402ZM104.4 16L106.815 1.45455H108.938L108.05 6.85938H108.178C108.339 6.6321 108.559 6.36932 108.839 6.07102C109.123 5.77273 109.49 5.51231 109.94 5.28977C110.389 5.0625 110.953 4.94886 111.63 4.94886C112.511 4.94886 113.259 5.1714 113.874 5.61648C114.49 6.06155 114.925 6.70312 115.181 7.54119C115.437 8.37926 115.468 9.38778 115.273 10.5668C115.079 11.7457 114.715 12.7566 114.18 13.5994C113.649 14.4375 113.003 15.0838 112.241 15.5384C111.478 15.9882 110.657 16.2131 109.776 16.2131C109.113 16.2131 108.59 16.1018 108.207 15.8793C107.828 15.6567 107.544 15.3963 107.354 15.098C107.17 14.7997 107.03 14.5346 106.935 14.3026H106.758L106.474 16H104.4ZM107.39 10.5455C107.267 11.3125 107.267 11.9848 107.39 12.5625C107.518 13.1402 107.766 13.5923 108.136 13.919C108.51 14.241 109 14.402 109.606 14.402C110.24 14.402 110.799 14.2339 111.282 13.8977C111.765 13.5568 112.163 13.0952 112.475 12.5128C112.788 11.9304 113.005 11.2746 113.129 10.5455C113.242 9.82576 113.24 9.17945 113.121 8.60653C113.003 8.03362 112.757 7.58144 112.383 7.25C112.013 6.91856 111.509 6.75284 110.87 6.75284C110.254 6.75284 109.708 6.91146 109.229 7.22869C108.751 7.54593 108.356 7.98864 108.043 8.55682C107.731 9.125 107.513 9.78788 107.39 10.5455ZM119.895 16.2415C119.204 16.2415 118.6 16.1136 118.084 15.858C117.568 15.5975 117.187 15.2211 116.941 14.7287C116.694 14.2363 116.631 13.6326 116.749 12.9176C116.853 12.3021 117.057 11.7955 117.36 11.3977C117.667 11 118.042 10.6851 118.482 10.4531C118.922 10.2164 119.4 10.0388 119.917 9.92045C120.433 9.80208 120.953 9.71449 121.479 9.65767C122.142 9.58191 122.679 9.51799 123.091 9.46591C123.508 9.41383 123.82 9.33333 124.029 9.22443C124.237 9.1108 124.363 8.92614 124.405 8.67045V8.62074C124.505 8.00521 124.415 7.52699 124.135 7.18608C123.861 6.84044 123.382 6.66761 122.701 6.66761C121.99 6.66761 121.394 6.82386 120.911 7.13636C120.433 7.44886 120.08 7.79924 119.853 8.1875L117.949 7.73295C118.29 7.07008 118.723 6.53504 119.249 6.12784C119.779 5.71591 120.359 5.41761 120.989 5.23295C121.619 5.04356 122.263 4.94886 122.921 4.94886C123.356 4.94886 123.809 5.00095 124.277 5.10511C124.746 5.20455 125.172 5.3892 125.556 5.65909C125.944 5.92898 126.233 6.31487 126.422 6.81676C126.612 7.31392 126.64 7.96023 126.507 8.75568L125.307 16H123.233L123.489 14.5085H123.404C123.224 14.7831 122.973 15.053 122.651 15.3182C122.334 15.5833 121.945 15.8035 121.486 15.9787C121.027 16.1539 120.497 16.2415 119.895 16.2415ZM120.62 14.5369C121.212 14.5369 121.735 14.4209 122.189 14.1889C122.649 13.9569 123.02 13.6539 123.304 13.2798C123.588 12.901 123.766 12.4962 123.837 12.0653L124.071 10.6591C123.981 10.7348 123.823 10.8035 123.596 10.8651C123.373 10.9266 123.122 10.9811 122.843 11.0284C122.563 11.0758 122.289 11.116 122.019 11.1491C121.754 11.1823 121.533 11.2131 121.358 11.2415C120.942 11.2936 120.551 11.3812 120.186 11.5043C119.827 11.6274 119.526 11.8049 119.284 12.0369C119.043 12.2642 118.891 12.5672 118.83 12.946C118.745 13.4716 118.87 13.8693 119.206 14.1392C119.547 14.4044 120.018 14.5369 120.62 14.5369ZM132.702 16.2202C131.642 16.2202 130.773 15.9811 130.096 15.5028C129.419 15.0199 128.948 14.3546 128.683 13.5071C128.417 12.6596 128.375 11.6889 128.555 10.5952C128.735 9.48722 129.102 8.50947 129.656 7.66193C130.214 6.80966 130.913 6.14441 131.751 5.66619C132.594 5.18797 133.529 4.94886 134.556 4.94886C135.385 4.94886 136.097 5.10275 136.694 5.41051C137.29 5.71354 137.743 6.13968 138.05 6.68892C138.358 7.23816 138.491 7.87973 138.448 8.61364H136.381C136.348 8.10227 136.159 7.66193 135.813 7.29261C135.468 6.9233 134.959 6.73864 134.286 6.73864C133.694 6.73864 133.15 6.89489 132.653 7.20739C132.156 7.51515 131.737 7.95549 131.396 8.52841C131.055 9.09659 130.823 9.76894 130.7 10.5455C130.567 11.3409 130.574 12.0275 130.721 12.6051C130.868 13.1828 131.138 13.6302 131.531 13.9474C131.924 14.2647 132.418 14.4233 133.015 14.4233C133.422 14.4233 133.801 14.3499 134.151 14.2031C134.506 14.0516 134.819 13.8362 135.089 13.5568C135.363 13.2775 135.576 12.9413 135.728 12.5483H137.802C137.598 13.2538 137.257 13.8835 136.779 14.4375C136.306 14.9915 135.723 15.4271 135.032 15.7443C134.341 16.0616 133.564 16.2202 132.702 16.2202ZM142.047 12.2997L142.452 9.70739H142.828L147.956 5.09091H150.499L144.675 10.3466H144.341L142.047 12.2997ZM139.483 16L141.898 1.45455H144.022L141.607 16H139.483ZM146.373 16L143.333 10.8153L145.03 9.33097L148.979 16H146.373Z" fill="black"/>
</svg>
