<svg width="325" height="67" viewBox="0 0 325 67" fill="none" xmlns="http://www.w3.org/2000/svg">
<path fill-rule="evenodd" clip-rule="evenodd" d="M20.7866 8.68398C20.6349 8.93915 20.6349 9.25349 20.7866 9.50866L46.8693 53.1389C47.0135 53.383 47.2761 53.5309 47.5609 53.5309H56.3069C56.9318 53.5309 57.3164 52.8504 56.9984 52.3142L26.2154 0.810714C26.0527 0.537054 25.657 0.537054 25.4943 0.810714L20.7866 8.68398Z" fill="#11af4b"/>
<path fill-rule="evenodd" clip-rule="evenodd" d="M20.487 18H24.8914C25.2021 18 25.3944 18.3365 25.239 18.6028L23.035 22.4192L20.8346 26.2357C20.6793 26.5019 20.2947 26.5019 20.1393 26.2357L17.9353 22.4192L15.7312 18.6028C15.5759 18.3365 15.7682 18 16.0788 18H20.487Z" fill="#ff7300"/>
<path fill-rule="evenodd" clip-rule="evenodd" d="M15.2285 26.8481H19.6329C19.9435 26.8481 20.1358 27.1847 19.9805 27.4509L17.7765 31.2674L15.5724 35.0838C15.4171 35.3501 15.0325 35.3501 14.8771 35.0838L12.6731 31.2674L10.469 27.4509C10.3137 27.1847 10.506 26.8481 10.8166 26.8481H15.2285Z" fill="#ff7300"/>
<path fill-rule="evenodd" clip-rule="evenodd" d="M9.93256 35.835H14.337C14.6476 35.835 14.8399 36.1715 14.6846 36.4378L12.4806 40.2542L10.2765 44.0706C10.1212 44.3369 9.73656 44.3369 9.58124 44.0706L7.37717 40.2542L5.1731 36.4378C5.01778 36.1715 5.21008 35.835 5.52072 35.835H9.93256Z" fill="#ff7300"/>
<path fill-rule="evenodd" clip-rule="evenodd" d="M4.8107 45.0605H9.21515C9.52579 45.0605 9.71809 45.3971 9.56277 45.6633L7.3587 49.4798L5.15463 53.2962C4.99931 53.5625 4.6147 53.5625 4.45938 53.2962L2.25901 49.4798L0.0549384 45.6633C-0.100382 45.3971 0.0919194 45.0605 0.40256 45.0605H4.8107Z" fill="#ff7300"/>
<path fill-rule="evenodd" clip-rule="evenodd" d="M15.2617 45.0605H19.6661C19.9767 45.0605 20.1691 45.3971 20.0137 45.6633L17.8097 49.4798L15.6056 53.2962C15.4503 53.5625 15.0657 53.5625 14.9103 53.2962L12.7063 49.4798L10.5022 45.6633C10.3469 45.3971 10.5392 45.0605 10.8498 45.0605H15.2617Z" fill="#ff7300"/>
<path fill-rule="evenodd" clip-rule="evenodd" d="M25.8527 45.0605H30.2571C30.5678 45.0605 30.7601 45.3971 30.6048 45.6633L28.4007 49.4798L26.1966 53.2962C26.0413 53.5625 25.6567 53.5625 25.5014 53.2962L23.301 49.4798L21.0969 45.6633C20.9416 45.3971 21.1339 45.0605 21.4446 45.0605H25.8527Z" fill="#ff7300"/>
<path fill-rule="evenodd" clip-rule="evenodd" d="M36.4443 45.0605H40.8487C41.1594 45.0605 41.3517 45.3971 41.1963 45.6633L38.9923 49.4798L36.7882 53.2962C36.6329 53.5625 36.2483 53.5625 36.093 53.2962L33.8889 49.4798L31.6848 45.6633C31.5295 45.3971 31.7218 45.0605 32.0324 45.0605H36.4443Z" fill="#ff7300"/>
<path fill-rule="evenodd" clip-rule="evenodd" d="M20.6274 35.835H25.0318C25.3425 35.835 25.5348 36.1715 25.3795 36.4378L23.1754 40.2542L20.9713 44.0706C20.816 44.3369 20.4314 44.3369 20.2761 44.0706L18.072 40.2542L15.8679 36.4378C15.7126 36.1715 15.9049 35.835 16.2155 35.835H20.6274Z" fill="#ff7300"/>
<path fill-rule="evenodd" clip-rule="evenodd" d="M30.9379 35.835H35.3423C35.6529 35.835 35.8452 36.1715 35.6899 36.4378L33.4859 40.2542L31.2818 44.0706C31.1265 44.3369 30.7419 44.3369 30.5865 44.0706L28.3825 40.2542L26.1858 36.4378C26.0305 36.1715 26.2228 35.835 26.5334 35.835H30.9379Z" fill="#ff7300"/>
<path fill-rule="evenodd" clip-rule="evenodd" d="M25.9936 26.8481H30.398C30.7087 26.8481 30.901 27.1847 30.7457 27.4509L28.5416 31.2674L26.3375 35.0838C26.1822 35.3501 25.7976 35.3501 25.6423 35.0838L23.4382 31.2674L21.2341 27.4509C21.0788 27.1847 21.2711 26.8481 21.5818 26.8481H25.9936Z" fill="#ff7300"/>
<path d="M141.803 22.8671C143.908 24.9492 144.962 27.793 144.962 31.395V52.7515C144.962 52.9697 144.884 53.1546 144.732 53.3062C144.581 53.4578 144.396 53.5355 144.178 53.5355H138.187C137.968 53.5355 137.784 53.4615 137.632 53.3062C137.48 53.1546 137.403 52.9697 137.403 52.7515V32.9593C137.403 30.9623 136.837 29.3462 135.709 28.1073C134.581 26.8685 133.083 26.2509 131.216 26.2509C129.348 26.2509 127.839 26.8574 126.689 28.0741C125.539 29.2907 124.962 30.8957 124.962 32.8927V52.7515C124.962 52.9697 124.885 53.1546 124.733 53.3062C124.581 53.4578 124.396 53.5355 124.178 53.5355H118.187C117.969 53.5355 117.784 53.4615 117.633 53.3062C117.481 53.1546 117.403 52.9697 117.403 52.7515V21.044C117.403 20.8258 117.477 20.6446 117.633 20.4892C117.784 20.3376 117.969 20.26 118.187 20.26H124.178C124.396 20.26 124.578 20.3376 124.733 20.4892C124.885 20.6409 124.962 20.8258 124.962 21.044V23.126C124.962 23.2554 125.007 23.3442 125.092 23.3849C125.177 23.4292 125.243 23.3849 125.288 23.2554C127.066 20.9108 129.759 19.7385 133.361 19.7385C136.889 19.7422 139.699 20.7851 141.803 22.8671Z" fill="#2e51ff"/>
<path d="M211.731 36.7998L211.664 38.819C211.664 39.3404 211.406 39.5993 210.884 39.5993H190.508C190.289 39.5993 190.182 39.7065 190.182 39.9247C190.312 41.3559 190.508 42.3322 190.77 42.8536C191.813 45.9785 194.35 47.565 198.388 47.6057C201.339 47.6057 203.684 46.3927 205.418 43.9593C205.592 43.7005 205.81 43.5673 206.069 43.5673C206.243 43.5673 206.395 43.6339 206.524 43.7633L210.559 47.0842C210.951 47.3875 211.014 47.7351 210.755 48.1271C209.409 50.039 207.619 51.5109 205.385 52.5537C203.148 53.5966 200.666 54.118 197.93 54.118C194.542 54.118 191.669 53.3599 189.302 51.84C186.935 50.3201 185.212 48.1937 184.125 45.4608C183.126 43.1162 182.627 39.8618 182.627 35.6941C182.627 33.1794 182.886 31.138 183.407 29.5737C184.276 26.5376 185.915 24.1375 188.322 22.3809C190.73 20.6243 193.629 19.7441 197.013 19.7441C205.563 19.7441 210.381 24.2151 211.465 33.1572C211.646 34.237 211.731 35.4537 211.731 36.7998ZM193.015 27.4584C191.95 28.2609 191.203 29.3777 190.77 30.8126C190.511 31.5522 190.338 32.5063 190.249 33.6786C190.164 33.8968 190.249 34.004 190.508 34.004H203.725C203.943 34.004 204.05 33.8968 204.05 33.6786C203.961 32.5951 203.832 31.7704 203.658 31.2046C203.266 29.6403 202.497 28.4273 201.347 27.5582C200.197 26.6892 198.754 26.2565 197.016 26.2565C195.411 26.2528 194.076 26.6522 193.015 27.4584Z" fill="#2e51ff"/>
<path d="M239.263 52.1045C236.9 50.8361 235.07 49.0499 233.779 46.7496C232.488 44.4494 231.841 41.7905 231.841 38.7691V22.2201C231.841 19.1988 232.488 16.5398 233.779 14.2396C235.07 11.9394 236.9 10.1569 239.263 8.88475C241.626 7.6163 244.363 6.98022 247.473 6.98022C250.583 6.98022 253.331 7.6163 255.716 8.88475C258.102 10.1569 259.943 11.9394 261.234 14.2396C262.525 16.5398 263.172 19.1988 263.172 22.2201V38.7728C263.172 41.7942 262.525 44.4531 261.234 46.7533C259.943 49.0536 258.102 50.8361 255.716 52.1082C253.327 53.3804 250.58 54.0127 247.473 54.0127C244.363 54.009 241.626 53.3767 239.263 52.1045ZM255.487 46.9826C257.502 44.9672 258.508 42.2971 258.508 38.9688V22.1536C258.508 18.8253 257.499 16.1441 255.487 14.1065C253.472 12.0688 250.802 11.0518 247.473 11.0518C244.189 11.0518 241.538 12.0688 239.526 14.1065C237.511 16.1441 236.505 18.8253 236.505 22.1536V38.9688C236.505 42.2971 237.511 44.9672 239.526 46.9826C241.541 48.9981 244.189 50.004 247.473 50.004C250.802 50.004 253.472 48.9981 255.487 46.9826Z" fill="#ff7300"/>
<path d="M290.482 22.8736C292.56 24.9334 293.603 27.6922 293.603 31.1499V52.8245C293.603 53.2646 293.385 53.4828 292.945 53.4828H289.594C289.154 53.4828 288.936 53.2646 288.936 52.8245V32.0708C288.936 29.6633 288.204 27.6922 286.736 26.1575C285.268 24.6265 283.374 23.8573 281.055 23.8573C278.648 23.8573 276.699 24.6006 275.209 26.0909C273.718 27.5813 272.975 29.5302 272.975 31.9376V52.8245C272.975 53.2646 272.757 53.4828 272.317 53.4828H268.966C268.526 53.4828 268.308 53.2646 268.308 52.8245V20.9025C268.308 20.4661 268.526 20.2442 268.966 20.2442H272.317C272.753 20.2442 272.975 20.4624 272.975 20.9025V23.7278C272.975 23.8166 273.008 23.8831 273.075 23.9238C273.142 23.9682 273.193 23.946 273.238 23.8573C275.164 21.1428 278.119 19.7856 282.106 19.7856C285.612 19.7856 288.404 20.8174 290.482 22.8736Z" fill="#ff7300"/>
<path d="M325 35.8811V37.9817C325 38.4217 324.782 38.6399 324.342 38.6399H303.126C302.952 38.6399 302.863 38.7287 302.863 38.9025C302.952 41.31 303.081 42.8669 303.259 43.5658C303.74 45.5369 304.768 47.0901 306.347 48.2291C307.922 49.3681 309.938 49.9376 312.389 49.9376C314.227 49.9376 315.847 49.5235 317.249 48.6914C318.65 47.8593 319.745 46.6759 320.533 45.1449C320.795 44.7492 321.102 44.6641 321.453 44.8823L324.016 46.3949C324.368 46.613 324.453 46.92 324.279 47.3157C323.184 49.4162 321.542 51.0693 319.353 52.2748C317.164 53.4804 314.645 54.0795 311.798 54.0795C308.688 54.0351 306.084 53.2918 303.98 51.8459C301.879 50.3999 300.367 48.3881 299.446 45.8032C298.658 43.7026 298.263 40.6813 298.263 36.7391C298.263 34.9011 298.296 33.3997 298.363 32.2385C298.429 31.0773 298.592 30.0381 298.854 29.1173C299.598 26.2698 301.099 23.9954 303.355 22.2869C305.611 20.5784 308.336 19.7241 311.531 19.7241C315.514 19.7241 318.58 20.7337 320.729 22.7455C322.874 24.7609 324.209 27.6048 324.737 31.2844C324.911 32.5085 325 34.0432 325 35.8811ZM306.18 25.471C304.757 26.5878 303.825 28.0892 303.388 29.9716C303.126 30.8924 302.948 32.379 302.863 34.4389C302.863 34.6127 302.952 34.7014 303.126 34.7014H320.137C320.311 34.7014 320.4 34.6127 320.4 34.4389C320.311 32.4678 320.181 31.0662 320.004 30.2341C319.523 28.263 318.547 26.6987 317.082 25.5375C315.614 24.3763 313.765 23.7957 311.531 23.7957C309.387 23.7957 307.604 24.3542 306.18 25.471Z" fill="#ff7300"/>
<path d="M112.821 52.6211L93.8576 6.93844H93.8539C93.3657 5.79203 92.2304 4.98584 90.9028 4.98584C89.6122 4.98584 88.5064 5.75135 87.9998 6.84599L69.047 52.6211C68.9472 52.9244 68.973 53.1537 69.121 53.3053C69.2689 53.4569 69.4945 53.5346 69.794 53.5346H77.2642C77.7597 53.5346 78.0852 53.3164 78.2368 52.8837L80.7034 45.9165C80.8033 45.7427 80.929 45.6576 81.0769 45.6576H100.799C100.947 45.6576 101.073 45.7464 101.172 45.9165L103.639 52.8837C103.787 53.3164 104.112 53.5346 104.612 53.5346H112.082C112.629 53.5346 112.903 53.3386 112.903 52.9503C112.895 52.8171 112.87 52.7062 112.821 52.6211ZM98.4802 39.0676H83.318C83.0665 39.0676 82.9704 38.9381 83.0184 38.6756L90.6365 18.9647C90.6846 18.7909 90.7623 18.7058 90.8621 18.7058C90.962 18.7058 91.0359 18.7946 91.084 18.9647L98.7761 38.6756C98.8759 38.9344 98.7761 39.0676 98.4802 39.0676Z" fill="#2e51ff"/>
<path d="M227.344 47.3586H225.95C225.011 47.3586 224.253 46.6005 224.253 45.6649C224.253 38.4203 224.253 8.99449 224.253 8.99449C224.253 8.35102 223.731 7.82959 223.088 7.82959H217.859C217.215 7.82959 216.694 8.35102 216.694 8.99449V46.9999V47.9466C216.694 51.0124 219.179 53.4975 222.245 53.4975H227.344C227.766 53.4975 228.11 53.1536 228.11 52.732V48.1241C228.11 47.7026 227.766 47.3586 227.344 47.3586Z" fill="#2e51ff"/>
<path d="M177.956 20.4912C177.804 20.3395 177.62 20.2619 177.401 20.2619H171.41C171.192 20.2619 171.007 20.3395 170.856 20.4912C170.704 20.6428 170.626 20.8277 170.626 21.0459V22.6102C170.626 22.7396 170.582 22.8284 170.497 22.869C170.408 22.9134 170.323 22.869 170.238 22.7396C168.326 20.7426 165.66 19.7441 162.232 19.7441C159.366 19.7441 156.87 20.5355 154.743 22.122C152.617 23.7085 151.119 25.8238 150.25 28.468C149.555 30.3799 149.207 33.135 149.207 36.7369C149.207 39.9506 149.488 42.5762 150.054 44.6139C150.964 47.565 152.595 49.758 154.935 51.1891C157.28 52.6203 159.861 53.3377 162.683 53.3377C165.937 53.3377 168.456 52.3836 170.234 50.4717C170.32 50.3866 170.408 50.3534 170.493 50.3755C170.578 50.3977 170.623 50.4717 170.623 50.6048V51.1263C170.623 54.1624 169.85 56.3221 168.311 57.6053C166.769 58.8849 164.373 59.5247 161.119 59.5247C161.1 59.5247 161.078 59.5284 161.059 59.5284H155.457C154.924 59.5284 154.595 60.1127 154.869 60.5675L158.009 65.7745C158.253 66.1776 158.689 66.4253 159.162 66.4253H161.533V66.4216C166.466 66.3883 170.464 65.2271 173.518 62.9417C176.621 60.6193 178.174 56.7474 178.174 51.3223V21.0422C178.185 20.8277 178.108 20.6428 177.956 20.4912ZM170.534 40.3463C170.467 41.1044 170.349 41.8107 170.175 42.4616C169.828 43.8521 169.132 44.98 168.093 45.8454C167.05 46.7144 165.686 47.1471 163.992 47.1471C162.387 47.1471 161.008 46.7033 159.858 45.8121C158.707 44.9245 157.916 43.7818 157.483 42.395C157.047 41.3115 156.833 39.4218 156.833 36.7295C156.833 34.1261 157.091 32.2142 157.613 31.0012C158.09 29.57 158.87 28.4199 159.957 27.5508C161.041 26.6818 162.365 26.2491 163.929 26.2491C165.579 26.2491 166.936 26.6818 167.997 27.5508C169.058 28.4199 169.765 29.57 170.112 31.0012C170.331 31.6964 170.471 32.3991 170.534 33.1165C170.601 33.8339 170.63 35.0173 170.63 36.663C170.634 38.3604 170.601 39.5882 170.534 40.3463Z" fill="#2e51ff"/>
</svg>
