<svg width="119" height="55" viewBox="0 0 119 55" fill="none" xmlns="http://www.w3.org/2000/svg">
<g clip-path="url(#clip0_3001_276)">
<path d="M119 0H0V29.3015H119V0Z" fill="#00AB4E"/>
<path d="M25.8609 14.2365C25.8609 11.6876 24.8217 10.0586 22.6187 10.0586C21.2196 10.0586 19.7679 11.0118 19.3167 12.5109H19.2693V10.4816L14.6157 10.4588V11.0329L15.7374 11.0557L15.7234 23.291H14.6175V23.8685L20.1593 23.8966V23.291H19.4642V15.4407C19.4642 12.9989 19.968 11.3049 21.1898 11.326C21.8551 11.326 22.1184 11.9948 22.1184 13.1323V23.319H21.4268V23.8966H26.9721V23.319H25.8627V14.2365H25.8609Z" fill="white"/>
<path d="M38.7543 5.62305H33.8216V6.20409H35.0381V11.0561H34.9784C34.7063 10.5891 33.9093 10.0608 33.1036 10.0608H33.0386C30.0562 10.0871 27.9462 13.6559 27.9321 17.3194C27.9321 20.8619 30.0404 24.3095 32.8245 24.3095H33.0404C34.3429 24.2358 34.8941 23.4458 35.2294 22.7279H35.2821V23.897H39.5881V23.3194H38.7578V5.62305H38.7543ZM33.6021 23.4687C33.4055 23.4687 33.2335 23.4458 33.0369 23.3826C32.0345 23.0491 31.0357 21.6395 31.0357 17.4985C31.0568 13.3171 32.0363 11.4844 33.0369 11.0087C33.2072 10.9385 33.3845 10.9034 33.553 10.9034C34.3184 10.9034 35.0363 11.6319 35.0188 13.8296V18.952C35.0188 22.461 34.6852 23.4687 33.6004 23.4687H33.6021Z" fill="white"/>
<path d="M7.03874 6.18436H8.25524L8.24295 23.2909H7.01416V23.8685H13.6988V23.2909H12.4823L12.4946 6.18436H13.7199V5.60156H7.03874V6.18436Z" fill="white"/>
<path d="M45.6743 10.4976H40.8294V11.0733H41.9318V23.3192H40.8101V23.9142H46.7873V23.3402H45.6533L45.6743 10.4976Z" fill="white"/>
<path d="M92.5578 5.68767L87.7006 5.67188V6.24941H88.8152V23.3595H87.6777V23.93L93.6602 23.9528V23.3823H92.5385L92.5578 5.68767Z" fill="white"/>
<path d="M43.7979 9.53601C44.8494 9.53601 45.7148 8.57229 45.7148 7.36983C45.7148 6.16736 44.8652 5.22119 43.7979 5.22119C42.7306 5.22119 41.895 6.18316 41.895 7.36983C41.895 8.55649 42.7552 9.53601 43.7979 9.53601Z" fill="white"/>
<path d="M85.5421 10.5151H81.1026V11.1032H81.8118V18.971C81.8118 21.411 81.3098 23.0822 80.1161 23.0822C79.4367 23.0822 79.1611 22.4099 79.1611 21.2741V10.5169H74.7217V11.105H75.4291V14.8861L75.4203 20.1857C75.4203 22.7065 76.4595 24.3637 78.6556 24.3637C80.0476 24.3637 81.5099 23.3824 81.9575 21.9043H82.0313V23.9406H86.6621V23.3613H85.5333L85.5438 10.5169L85.5421 10.5151Z" fill="white"/>
<path d="M104.497 12.511C104.497 11.6561 105.202 10.7012 106.587 10.7012C108.701 10.7205 109.372 12.4952 110.093 14.9721H111.006L111.025 11.1857C109.74 10.5467 108.332 10.1412 106.918 10.1201C103.83 10.1201 101.932 12.109 101.932 14.6158C101.932 20.0242 109.412 18.3846 109.412 21.8498C109.412 23.2138 108.439 23.7984 106.849 23.7984C104.239 23.7984 103.982 21.3495 103.243 19.1044H102.13V23.1348C103.545 24.0248 105.399 24.3794 106.61 24.3794C110.439 24.3794 111.985 21.9253 111.985 19.552C111.985 14.4104 104.497 15.755 104.497 12.511Z" fill="white"/>
<path d="M99.5183 5.6875H94.668V6.27381H95.7757V23.3821H94.647V23.9527H100.629V23.3821H99.4972L99.5183 5.6875Z" fill="white"/>
<path d="M58.6472 14.3897C58.6472 11.0334 56.9637 10.0767 53.6442 10.0767C53.4441 10.0767 53.2545 10.0767 53.0491 10.0942C51.8396 10.189 50.5915 10.5067 49.4874 11.0562V15.22H50.4265C50.8777 13.9193 51.5746 11.0316 53.0491 10.7016C53.1579 10.6735 53.2545 10.6437 53.3581 10.6437C54.6185 10.6437 54.8379 11.632 54.8379 12.8502V15.1446C54.55 15.5975 53.8829 15.838 53.0491 16.0837C51.0128 16.6893 48.0269 17.2247 48.0269 20.553C48.0269 22.7508 49.7735 24.3324 52.0046 24.3324C52.4031 24.3324 52.7489 24.2956 53.0491 24.2043C54.0163 23.9498 54.7097 23.3178 55.1872 22.0118H55.2258V23.9111H59.7548V23.3389H58.6489V14.388L58.6472 14.3897ZM54.8045 20.4477C54.8045 22.2786 54.1831 23.1967 53.4195 23.3406C53.2949 23.3599 53.179 23.3599 53.0474 23.3406C52.2522 23.2441 51.2937 22.4155 51.3095 20.8743C51.3095 17.8813 52.1187 17.2546 53.0474 16.8719C53.6424 16.6507 54.2709 16.4962 54.8045 15.9766V20.4459V20.4477Z" fill="white"/>
<path d="M68.0258 10.1027H67.9626C67.1569 10.1027 66.3582 10.6329 66.0931 11.0998H66.0281V5.66679H62.326L61.0972 5.66504V6.25135H62.3119V23.3614H61.4816V23.9425H65.7894V22.7734H65.8403C66.1774 23.4913 66.7286 24.2778 68.0293 24.355H68.2417C71.0329 24.355 73.1358 20.9038 73.1358 17.3632C73.1236 13.6996 71.0118 10.1291 68.0293 10.1045L68.0258 10.1027ZM68.0258 23.4194C67.8292 23.4878 67.6589 23.5089 67.4588 23.5089C66.3757 23.5089 66.0457 22.4995 66.0457 18.994V13.8734C66.0246 11.6756 66.7408 10.9436 67.5115 10.9436C67.6818 10.9436 67.8591 10.984 68.0258 11.0507C69.0317 11.5281 70.0059 13.3608 70.0288 17.5457C70.0288 21.6815 69.0317 23.0929 68.0258 23.4229V23.4194Z" fill="white"/>
<path d="M9.60914 32.8901C10.1059 32.8901 10.5588 32.9937 10.9661 33.2026C11.3014 33.3501 11.5664 33.6186 11.7613 34.0066C11.9561 34.3963 12.0386 34.714 12.0123 34.9615H10.9064C10.8924 34.6596 10.8098 34.4314 10.6554 34.2769C10.3745 33.989 10.0217 33.8451 9.5986 33.8451C9.37742 33.8451 9.17906 33.8714 9.00527 33.9258C8.56291 34.054 8.34523 34.3419 8.35226 34.7913C8.35226 34.9317 8.3821 35.0581 8.44354 35.1687C8.50322 35.2793 8.57168 35.3688 8.64892 35.4355C8.72616 35.5022 8.85255 35.5707 9.02634 35.6374C9.20012 35.7041 9.34933 35.755 9.47397 35.7883C9.5986 35.8217 9.78995 35.8691 10.0515 35.9288C10.7484 36.0973 11.2856 36.329 11.6612 36.6274C12.0369 36.9258 12.2247 37.37 12.2247 37.9598C12.2247 38.6497 11.9877 39.1781 11.5155 39.5432C11.0433 39.9083 10.4237 40.0909 9.66004 40.0909C9.14395 40.0909 8.65419 39.9961 8.19076 39.81C7.80808 39.6626 7.51141 39.394 7.30076 39.006C7.09011 38.6181 6.99707 38.2477 7.0234 37.9001H8.12932C8.12932 38.2951 8.26624 38.6023 8.54184 38.8199C8.81744 39.0376 9.18257 39.1465 9.63898 39.1465C10.0954 39.1465 10.4377 39.0517 10.7045 38.8603C10.9731 38.669 11.1065 38.4022 11.1065 38.0616C11.1065 37.8948 11.0767 37.7474 11.0152 37.6245C10.9555 37.4999 10.8853 37.3998 10.8046 37.3226C10.7238 37.2453 10.5974 37.1734 10.4219 37.1067C10.2481 37.04 10.0954 36.9908 9.96373 36.961C9.83383 36.9311 9.63547 36.8855 9.3704 36.8258C9.10533 36.7661 8.89292 36.7152 8.73143 36.6748C8.26799 36.5414 7.90462 36.3343 7.63955 36.0569C7.37449 35.7796 7.24283 35.3477 7.24283 34.7649C7.24283 34.2752 7.40608 33.8626 7.7361 33.5274C7.90989 33.3465 8.11527 33.2096 8.3505 33.1148C8.75951 32.9674 9.17906 32.8936 9.60738 32.8936L9.60914 32.8901Z" fill="#211D1E"/>
<path d="M23.2068 32.971V33.9558H19.9172V35.9271H22.7645V36.8926H19.9172V39.0342H23.2068V40.0102H18.8218V32.9692H23.2068V32.971Z" fill="#211D1E"/>
<path d="M32.3293 39.1267C32.7928 39.1267 33.1596 38.9968 33.43 38.7335C33.7021 38.4719 33.8372 38.1594 33.8372 37.7978H34.9238C34.9379 38.1524 34.8484 38.514 34.657 38.8792C34.4657 39.2443 34.2568 39.4936 34.0286 39.6287C33.6002 39.9447 33.0332 40.1009 32.3293 40.1009C31.3305 40.1009 30.6178 39.792 30.1912 39.1758C29.7647 38.5597 29.5522 37.6679 29.5522 36.5006C29.5522 36.0845 29.5751 35.7089 29.6225 35.3736C29.6699 35.0383 29.7559 34.7118 29.884 34.3923C30.0122 34.0746 30.1754 33.8095 30.3773 33.5971C30.5792 33.3864 30.8425 33.2162 31.1725 33.0898C31.5008 32.9616 31.8834 32.8984 32.3188 32.8984C33.1035 32.8984 33.7003 33.0687 34.1093 33.411C34.2498 33.5181 34.3867 33.6585 34.5218 33.8341C34.6623 34.0079 34.7711 34.2255 34.8484 34.4871C34.9256 34.7487 34.9607 34.9962 34.9537 35.2314H33.8565C33.8565 34.8821 33.7301 34.5696 33.4791 34.2905C33.2281 34.0131 32.8437 33.8727 32.3276 33.8727C31.664 33.8727 31.2076 34.1237 30.9601 34.6275C30.8793 34.8083 30.8162 34.9944 30.7688 35.1858C30.7214 35.3771 30.6933 35.5281 30.6827 35.6386C30.6722 35.7492 30.6634 35.9072 30.6582 36.1109C30.6511 36.3162 30.6476 36.4444 30.6476 36.4988C30.6476 36.9219 30.681 37.3344 30.7477 37.7364C30.8214 38.1524 30.9899 38.493 31.2497 38.758C31.5113 39.0231 31.8694 39.146 32.3258 39.1249L32.3293 39.1267Z" fill="#211D1E"/>
<path d="M42.5591 32.9702V37.687C42.5591 38.1698 42.6889 38.5279 42.9505 38.7631C43.2121 38.9983 43.5579 39.1159 43.9862 39.1159C44.5163 39.1159 44.8955 39.0054 45.122 38.7842C45.3502 38.563 45.4643 38.2207 45.4643 37.759V32.972H46.5614V37.6379C46.5614 38.068 46.4947 38.4787 46.3595 38.8755C46.2384 39.2511 45.9663 39.5548 45.545 39.7865C45.122 40.0182 44.5901 40.1236 43.9458 40.1025C43.7106 40.0884 43.5509 40.0797 43.4631 40.0727C43.3753 40.0656 43.2349 40.0428 43.04 40.0024C42.8452 39.9621 42.6696 39.8953 42.5117 39.8006C42.3537 39.7075 42.1974 39.5829 42.0447 39.4284C41.9499 39.3143 41.8692 39.1967 41.799 39.0756C41.7287 38.9544 41.6743 38.8509 41.6375 38.7631C41.6006 38.6753 41.5707 38.57 41.5479 38.4471C41.5251 38.3225 41.5093 38.233 41.5023 38.175C41.4953 38.1189 41.4865 38.0241 41.4777 37.8942C41.4672 37.7625 41.4619 37.6818 41.4619 37.6484V32.972H42.5591V32.9702Z" fill="#211D1E"/>
<path d="M58.4489 35.0436C58.4419 35.3929 58.3839 35.7019 58.2733 35.974C58.1627 36.246 58.0241 36.4514 57.8555 36.5919C57.687 36.7323 57.529 36.8394 57.3781 36.9131C57.2271 36.9868 57.0814 37.0307 56.941 37.0448L58.5595 40.0114H57.3728L55.7736 37.1448H54.5659V40.0114H53.4688V32.981H56.144C56.5864 32.981 56.9919 33.0477 57.3605 33.1828C57.7028 33.2899 57.9749 33.5199 58.175 33.871C58.3769 34.2238 58.4664 34.6135 58.4471 35.0418L58.4489 35.0436ZM54.5571 36.1793H55.9351C56.8936 36.1793 57.3728 35.8142 57.3728 35.0822C57.3728 34.3116 56.9269 33.9254 56.0352 33.9254H54.5571V36.1776V36.1793Z" fill="#211D1E"/>
<path d="M64.8364 40.0112V39.1159H66.1934V33.876H64.8364V32.9702H68.679V33.876H67.301V39.1159H68.679V40.0112H64.8364Z" fill="#211D1E"/>
<path d="M74.561 33.9574V32.9727H79.7817V33.9574H77.7103V40.0119H76.6131V33.9574H74.561Z" fill="#211D1E"/>
<path d="M85.665 40.0112V39.1159H87.022V33.876H85.665V32.9702H89.5077V33.876H88.1297V39.1159H89.5077V40.0112H85.665Z" fill="#211D1E"/>
<path d="M100.561 32.971V33.9558H97.2717V35.9271H100.119V36.8926H97.2717V39.0342H100.561V40.0102H96.1763V32.9692H100.561V32.971Z" fill="#211D1E"/>
<path d="M109.331 32.8901C109.828 32.8901 110.281 32.9937 110.688 33.2026C111.024 33.3501 111.289 33.6186 111.483 34.0066C111.678 34.3963 111.761 34.714 111.734 34.9615H110.629C110.615 34.6596 110.532 34.4314 110.378 34.2769C110.097 33.989 109.744 33.8451 109.321 33.8451C109.1 33.8451 108.901 33.8714 108.727 33.9258C108.285 34.054 108.067 34.3419 108.074 34.7913C108.074 34.9317 108.104 35.0581 108.166 35.1687C108.225 35.2793 108.294 35.3688 108.371 35.4355C108.448 35.5022 108.575 35.5707 108.749 35.6374C108.922 35.7041 109.072 35.755 109.196 35.7883C109.321 35.8217 109.512 35.8691 109.774 35.9288C110.471 36.0973 111.008 36.329 111.383 36.6274C111.759 36.9258 111.947 37.37 111.947 37.9598C111.947 38.6497 111.71 39.1781 111.238 39.5432C110.765 39.9083 110.146 40.0909 109.382 40.0909C108.866 40.0909 108.376 39.9961 107.913 39.81C107.53 39.6626 107.234 39.394 107.023 39.006C106.812 38.6181 106.719 38.2477 106.746 37.9001H107.851C107.851 38.2951 107.988 38.6023 108.264 38.8199C108.54 39.0376 108.905 39.1465 109.361 39.1465C109.818 39.1465 110.16 39.0517 110.427 38.8603C110.695 38.669 110.829 38.4022 110.829 38.0616C110.829 37.8948 110.799 37.7474 110.737 37.6245C110.678 37.4999 110.607 37.3998 110.527 37.3226C110.446 37.2453 110.32 37.1734 110.144 37.1067C109.97 37.04 109.818 36.9908 109.686 36.961C109.556 36.9311 109.358 36.8855 109.093 36.8258C108.827 36.7661 108.615 36.7152 108.454 36.6748C107.99 36.5414 107.627 36.3343 107.362 36.0569C107.097 35.7796 106.965 35.3477 106.965 34.7649C106.965 34.2752 107.128 33.8626 107.458 33.5274C107.632 33.3465 107.837 33.2096 108.073 33.1148C108.482 32.9674 108.901 32.8936 109.33 32.8936L109.331 32.8901Z" fill="#211D1E"/>
<path d="M111.505 54.2117C111.83 53.7375 112.074 53.243 112.236 52.7282C112.399 52.2088 112.48 51.6804 112.48 51.143C112.48 50.6011 112.399 50.0749 112.236 49.5646C112.074 49.0498 111.83 48.5552 111.505 48.0811H112.148C112.523 48.5056 112.806 48.9752 112.995 49.4901C113.185 50.0049 113.28 50.5559 113.28 51.143C113.28 51.7256 113.185 52.2743 112.995 52.7891C112.806 53.304 112.523 53.7782 112.148 54.2117H111.505Z" fill="#251F20"/>
<path d="M109.631 53.2093C109.256 53.2093 108.926 53.1167 108.642 52.9315C108.362 52.7464 108.165 52.498 108.052 52.1864L108.642 51.9086C108.741 52.1164 108.876 52.2812 109.048 52.4031C109.224 52.5251 109.418 52.586 109.631 52.586C109.811 52.586 109.958 52.5454 110.071 52.4641C110.184 52.3828 110.24 52.2722 110.24 52.1322C110.24 52.0418 110.215 51.9696 110.166 51.9154C110.116 51.8567 110.053 51.8093 109.976 51.7731C109.904 51.737 109.829 51.7099 109.753 51.6918L109.177 51.5293C108.861 51.4389 108.624 51.3034 108.465 51.1228C108.312 50.9376 108.235 50.7231 108.235 50.4793C108.235 50.258 108.292 50.066 108.405 49.9034C108.517 49.7364 108.673 49.6076 108.872 49.5173C109.071 49.427 109.294 49.3818 109.543 49.3818C109.877 49.3818 110.175 49.4654 110.437 49.6325C110.699 49.7951 110.884 50.0231 110.992 50.3167L110.403 50.5944C110.331 50.4183 110.215 50.2783 110.057 50.1744C109.904 50.0705 109.73 50.0186 109.536 50.0186C109.369 50.0186 109.235 50.0593 109.136 50.1405C109.037 50.2173 108.987 50.3189 108.987 50.4454C108.987 50.5312 109.01 50.6034 109.055 50.6622C109.1 50.7164 109.159 50.7615 109.231 50.7976C109.303 50.8293 109.378 50.8564 109.455 50.8789L110.051 51.0551C110.353 51.1409 110.586 51.2764 110.748 51.4615C110.911 51.6422 110.992 51.8589 110.992 52.1118C110.992 52.3286 110.934 52.5205 110.816 52.6876C110.703 52.8502 110.545 52.9789 110.342 53.0738C110.139 53.1641 109.902 53.2093 109.631 53.2093Z" fill="#251F20"/>
<path d="M104.432 53.1281V48H105.198V51.4345L104.9 51.36L106.735 49.4632H107.691L106.309 50.9332L107.751 53.1281H106.871L105.584 51.1839L106.038 51.1229L104.954 52.2745L105.198 51.7665V53.1281H104.432Z" fill="#251F20"/>
<path d="M102.065 53.2093C101.699 53.2093 101.374 53.1257 101.089 52.9586C100.809 52.787 100.586 52.5567 100.419 52.2676C100.256 51.9786 100.175 51.6512 100.175 51.2854C100.175 50.9241 100.256 50.5989 100.419 50.3099C100.581 50.0209 100.805 49.7951 101.089 49.6325C101.374 49.4654 101.699 49.3818 102.065 49.3818C102.313 49.3818 102.546 49.427 102.763 49.5173C102.979 49.6031 103.167 49.7228 103.325 49.8764C103.487 50.0299 103.607 50.2083 103.684 50.4115L103.013 50.7231C102.936 50.5334 102.812 50.3822 102.641 50.2693C102.474 50.1518 102.282 50.0931 102.065 50.0931C101.857 50.0931 101.67 50.1451 101.503 50.2489C101.34 50.3483 101.211 50.4905 101.116 50.6757C101.022 50.8564 100.974 51.0618 100.974 51.2922C100.974 51.5225 101.022 51.7302 101.116 51.9154C101.211 52.096 101.34 52.2383 101.503 52.3422C101.67 52.446 101.857 52.498 102.065 52.498C102.286 52.498 102.478 52.4415 102.641 52.3286C102.808 52.2112 102.932 52.0554 103.013 51.8612L103.684 52.1796C103.612 52.3738 103.494 52.5499 103.332 52.708C103.174 52.8615 102.986 52.9834 102.769 53.0738C102.553 53.1641 102.318 53.2093 102.065 53.2093Z" fill="#251F20"/>
<path d="M97.6661 53.2093C97.3139 53.2093 96.991 53.1257 96.6974 52.9586C96.4084 52.7915 96.1781 52.5634 96.0064 52.2744C95.8348 51.9854 95.749 51.658 95.749 51.2922C95.749 50.9218 95.8348 50.5944 96.0064 50.3099C96.1781 50.0209 96.4084 49.7951 96.6974 49.6325C96.9864 49.4654 97.3093 49.3818 97.6661 49.3818C98.0274 49.3818 98.3503 49.4654 98.6348 49.6325C98.9239 49.7951 99.1519 50.0209 99.319 50.3099C99.4906 50.5944 99.5764 50.9218 99.5764 51.2922C99.5764 51.6625 99.4906 51.9922 99.319 52.2812C99.1474 52.5702 98.9171 52.7983 98.6281 52.9654C98.339 53.128 98.0184 53.2093 97.6661 53.2093ZM97.6661 52.498C97.8829 52.498 98.0748 52.446 98.2419 52.3422C98.409 52.2383 98.54 52.096 98.6348 51.9154C98.7342 51.7302 98.7839 51.5225 98.7839 51.2922C98.7839 51.0618 98.7342 50.8564 98.6348 50.6757C98.54 50.4951 98.409 50.3528 98.2419 50.2489C98.0748 50.1451 97.8829 50.0931 97.6661 50.0931C97.4539 50.0931 97.2619 50.1451 97.0903 50.2489C96.9232 50.3528 96.79 50.4951 96.6906 50.6757C96.5958 50.8564 96.5484 51.0618 96.5484 51.2922C96.5484 51.5225 96.5958 51.7302 96.6906 51.9154C96.79 52.096 96.9232 52.2383 97.0903 52.3422C97.2619 52.446 97.4539 52.498 97.6661 52.498Z" fill="#251F20"/>
<path d="M94.8039 53.1685C94.42 53.1685 94.1219 53.0601 93.9097 52.8434C93.6974 52.6266 93.5913 52.3218 93.5913 51.9289V50.154H92.9478V49.463H93.0494C93.221 49.463 93.3542 49.4134 93.449 49.314C93.5439 49.2147 93.5913 49.0792 93.5913 48.9076V48.623H94.3568V49.463H95.19V50.154H94.3568V51.895C94.3568 52.0214 94.3771 52.1298 94.4177 52.2201C94.4584 52.306 94.5239 52.3737 94.6142 52.4234C94.7045 52.4685 94.8219 52.4911 94.9665 52.4911C95.0026 52.4911 95.0432 52.4889 95.0884 52.4843C95.1336 52.4798 95.1765 52.4753 95.2171 52.4708V53.1279C95.1539 53.1369 95.0839 53.146 95.0071 53.155C94.9303 53.164 94.8626 53.1685 94.8039 53.1685Z" fill="#251F20"/>
<path d="M90.6752 53.2094C90.3591 53.2094 90.0655 53.1506 89.7946 53.0332C89.5236 52.9113 89.2933 52.7465 89.1036 52.5387C88.9139 52.331 88.7739 52.0916 88.6836 51.8206L89.361 51.5361C89.483 51.8477 89.6613 52.0871 89.8962 52.2542C90.131 52.4213 90.402 52.5048 90.7091 52.5048C90.8897 52.5048 91.0478 52.4777 91.1833 52.4235C91.3188 52.3648 91.4226 52.2835 91.4949 52.1797C91.5717 52.0758 91.61 51.9561 91.61 51.8206C91.61 51.6355 91.5581 51.4887 91.4542 51.3803C91.3504 51.2719 91.1968 51.1861 90.9936 51.1229L90.0452 50.8248C89.6658 50.7074 89.3768 50.529 89.1781 50.2897C88.9794 50.0458 88.88 49.7613 88.88 49.4361C88.88 49.1516 88.95 48.9032 89.09 48.691C89.23 48.4742 89.422 48.3048 89.6658 48.1829C89.9142 48.061 90.1965 48 90.5126 48C90.8152 48 91.0907 48.0542 91.3391 48.1626C91.5875 48.2665 91.7997 48.411 91.9759 48.5961C92.1565 48.7813 92.2875 48.9958 92.3688 49.2397L91.7049 49.531C91.6055 49.2645 91.4497 49.059 91.2375 48.9145C91.0297 48.77 90.7881 48.6977 90.5126 48.6977C90.3455 48.6977 90.1988 48.7271 90.0723 48.7858C89.9459 48.84 89.8465 48.9213 89.7742 49.0297C89.7065 49.1335 89.6726 49.2555 89.6726 49.3955C89.6726 49.5581 89.7246 49.7026 89.8284 49.829C89.9323 49.9555 90.0904 50.0503 90.3026 50.1135L91.1833 50.3913C91.5852 50.5132 91.8878 50.6894 92.091 50.9197C92.2942 51.1455 92.3959 51.4277 92.3959 51.7665C92.3959 52.0465 92.3213 52.2948 92.1723 52.5116C92.0278 52.7284 91.8268 52.9 91.5694 53.0265C91.312 53.1484 91.0139 53.2094 90.6752 53.2094Z" fill="#251F20"/>
<path d="M85.9883 53.1278V49.463H86.7538V53.1278H85.9883ZM85.9883 48.9617V48.0811H86.7538V48.9617H85.9883Z" fill="#251F20"/>
<path d="M82.019 53.128V49.4631H82.7507V50.1812L82.6626 50.0864C82.7529 49.856 82.8974 49.6822 83.0961 49.5647C83.2948 49.4428 83.5252 49.3818 83.7871 49.3818C84.0581 49.3818 84.2974 49.4405 84.5052 49.558C84.7129 49.6754 84.8755 49.838 84.9929 50.0457C85.1103 50.2534 85.169 50.4928 85.169 50.7638V53.128H84.4103V50.967C84.4103 50.7818 84.3765 50.626 84.3087 50.4996C84.241 50.3686 84.1439 50.2693 84.0174 50.2015C83.8955 50.1293 83.7555 50.0931 83.5974 50.0931C83.4394 50.0931 83.2971 50.1293 83.1707 50.2015C83.0487 50.2693 82.9539 50.3686 82.8861 50.4996C82.8184 50.6305 82.7845 50.7864 82.7845 50.967V53.128H82.019Z" fill="#251F20"/>
<path d="M79.2001 53.2093C78.9517 53.2093 78.7326 53.1664 78.543 53.0805C78.3578 52.9902 78.2133 52.8683 78.1094 52.7147C78.0055 52.5567 77.9536 52.3715 77.9536 52.1593C77.9536 51.9605 77.9965 51.7822 78.0823 51.6241C78.1726 51.466 78.3104 51.3328 78.4955 51.2244C78.6807 51.116 78.9133 51.0393 79.1933 50.9941L80.4668 50.7841V51.387L79.3423 51.5834C79.1391 51.6196 78.9901 51.6851 78.8952 51.7799C78.8004 51.8702 78.753 51.9876 78.753 52.1322C78.753 52.2722 78.8049 52.3873 78.9088 52.4776C79.0172 52.5634 79.1549 52.6064 79.322 52.6064C79.5297 52.6064 79.7104 52.5612 79.8639 52.4709C80.022 52.3805 80.1439 52.2609 80.2297 52.1118C80.3156 51.9583 80.3585 51.7889 80.3585 51.6038V50.6622C80.3585 50.4815 80.2907 50.3347 80.1552 50.2218C80.0243 50.1044 79.8481 50.0457 79.6268 50.0457C79.4236 50.0457 79.2452 50.0999 79.0917 50.2083C78.9426 50.3122 78.832 50.4476 78.7597 50.6147L78.123 50.2964C78.1907 50.1157 78.3014 49.9576 78.4549 49.8222C78.6085 49.6822 78.7868 49.5738 78.9901 49.497C79.1978 49.4202 79.4168 49.3818 79.6472 49.3818C79.9362 49.3818 80.1914 49.436 80.4126 49.5444C80.6384 49.6528 80.8123 49.8041 80.9343 49.9983C81.0607 50.188 81.1239 50.4093 81.1239 50.6622V53.128H80.3923V52.4641L80.5481 52.4844C80.4623 52.6334 80.3517 52.7622 80.2162 52.8705C80.0852 52.9789 79.9339 53.0625 79.7623 53.1212C79.5952 53.1799 79.4078 53.2093 79.2001 53.2093Z" fill="#251F20"/>
<path d="M74.1333 53.1281V48H74.8988V50.1813L74.7768 50.0865C74.8672 49.8561 75.0117 49.6823 75.2104 49.5648C75.4091 49.4429 75.6394 49.3819 75.9014 49.3819C76.1723 49.3819 76.4117 49.4406 76.6194 49.5581C76.8272 49.6755 76.9898 49.8381 77.1072 50.0458C77.2246 50.2535 77.2833 50.4906 77.2833 50.7571V53.1281H76.5246V50.9671C76.5246 50.7819 76.4885 50.6261 76.4162 50.4997C76.3485 50.3687 76.2536 50.2694 76.1317 50.2016C76.0097 50.1294 75.8697 50.0932 75.7117 50.0932C75.5581 50.0932 75.4181 50.1294 75.2917 50.2016C75.1698 50.2694 75.0727 50.3687 75.0004 50.4997C74.9327 50.6306 74.8988 50.7865 74.8988 50.9671V53.1281H74.1333Z" fill="#251F20"/>
<path d="M69.187 53.1278V48.0811H70.8399C71.3638 48.0811 71.8177 48.1872 72.2015 48.3994C72.5899 48.6072 72.8902 48.9007 73.1025 49.2801C73.3148 49.6594 73.4209 50.0998 73.4209 50.6011C73.4209 51.0978 73.3148 51.5382 73.1025 51.922C72.8902 52.3014 72.5899 52.5972 72.2015 52.8094C71.8177 53.0217 71.3638 53.1278 70.8399 53.1278H69.187ZM69.9864 52.4165H70.8535C71.2102 52.4165 71.5196 52.342 71.7815 52.193C72.048 52.044 72.2535 51.834 72.398 51.563C72.5425 51.292 72.6148 50.9714 72.6148 50.6011C72.6148 50.2307 72.5402 49.9123 72.3912 49.6459C72.2467 49.3749 72.0435 49.1649 71.7815 49.0159C71.5196 48.8669 71.2102 48.7923 70.8535 48.7923H69.9864V52.4165Z" fill="#251F20"/>
<path d="M65.8167 53.2093C65.4418 53.2093 65.1122 53.1167 64.8276 52.9315C64.5476 52.7464 64.3512 52.498 64.2383 52.1864L64.8276 51.9086C64.927 52.1164 65.0625 52.2812 65.2341 52.4031C65.4102 52.5251 65.6044 52.586 65.8167 52.586C65.9973 52.586 66.1441 52.5454 66.257 52.4641C66.3699 52.3828 66.4263 52.2722 66.4263 52.1322C66.4263 52.0418 66.4015 51.9696 66.3518 51.9154C66.3022 51.8567 66.2389 51.8093 66.1622 51.7731C66.0899 51.737 66.0154 51.7099 65.9386 51.6918L65.3628 51.5293C65.0467 51.4389 64.8096 51.3034 64.6515 51.1228C64.498 50.9376 64.4212 50.7231 64.4212 50.4793C64.4212 50.258 64.4776 50.066 64.5905 49.9034C64.7034 49.7364 64.8592 49.6076 65.058 49.5173C65.2567 49.427 65.4802 49.3818 65.7286 49.3818C66.0628 49.3818 66.3609 49.4654 66.6228 49.6325C66.8847 49.7951 67.0699 50.0231 67.1783 50.3167L66.5889 50.5944C66.5167 50.4183 66.4015 50.2783 66.2434 50.1744C66.0899 50.0705 65.916 50.0186 65.7218 50.0186C65.5547 50.0186 65.4215 50.0593 65.3222 50.1405C65.2228 50.2173 65.1731 50.3189 65.1731 50.4454C65.1731 50.5312 65.1957 50.6034 65.2409 50.6622C65.286 50.7164 65.3447 50.7615 65.417 50.7976C65.4893 50.8293 65.5638 50.8564 65.6405 50.8789L66.2367 51.0551C66.5392 51.1409 66.7718 51.2764 66.9344 51.4615C67.097 51.6422 67.1783 51.8589 67.1783 52.1118C67.1783 52.3286 67.1196 52.5205 67.0022 52.6876C66.8892 52.8502 66.7312 52.9789 66.528 53.0738C66.3247 53.1641 66.0876 53.2093 65.8167 53.2093Z" fill="#251F20"/>
<path d="M61.6429 53.2093C61.3945 53.2093 61.1755 53.1664 60.9858 53.0805C60.8007 52.9902 60.6562 52.8683 60.5523 52.7147C60.4484 52.5567 60.3965 52.3715 60.3965 52.1593C60.3965 51.9605 60.4394 51.7822 60.5252 51.6241C60.6155 51.466 60.7533 51.3328 60.9384 51.2244C61.1236 51.116 61.3562 51.0393 61.6362 50.9941L62.9097 50.7841V51.387L61.7852 51.5834C61.582 51.6196 61.4329 51.6851 61.3381 51.7799C61.2433 51.8702 61.1958 51.9876 61.1958 52.1322C61.1958 52.2722 61.2478 52.3873 61.3516 52.4776C61.46 52.5634 61.5978 52.6064 61.7649 52.6064C61.9726 52.6064 62.1533 52.5612 62.3068 52.4709C62.4649 52.3805 62.5868 52.2609 62.6726 52.1118C62.7584 51.9583 62.8013 51.7889 62.8013 51.6038V50.6622C62.8013 50.4815 62.7336 50.3347 62.5981 50.2218C62.4671 50.1044 62.291 50.0457 62.0697 50.0457C61.8665 50.0457 61.6881 50.0999 61.5345 50.2083C61.3855 50.3122 61.2749 50.4476 61.2026 50.6147L60.5658 50.2964C60.6336 50.1157 60.7442 49.9576 60.8978 49.8222C61.0513 49.6822 61.2297 49.5738 61.4329 49.497C61.6407 49.4202 61.8597 49.3818 62.09 49.3818C62.3791 49.3818 62.6342 49.436 62.8555 49.5444C63.0813 49.6528 63.2552 49.8041 63.3771 49.9983C63.5036 50.188 63.5668 50.4093 63.5668 50.6622V53.128H62.8352V52.4641L62.991 52.4844C62.9052 52.6334 62.7945 52.7622 62.6591 52.8705C62.5281 52.9789 62.3768 53.0625 62.2052 53.1212C62.0381 53.1799 61.8507 53.2093 61.6429 53.2093Z" fill="#251F20"/>
<path d="M55.3921 53.128V49.4631H56.1237V50.1812L56.0356 50.0864C56.126 49.856 56.2705 49.6822 56.4692 49.5647C56.6679 49.4428 56.8982 49.3818 57.1602 49.3818C57.4311 49.3818 57.6705 49.4405 57.8782 49.558C58.086 49.6754 58.2485 49.838 58.366 50.0457C58.4834 50.2534 58.5421 50.4928 58.5421 50.7638V53.128H57.7834V50.967C57.7834 50.7818 57.7495 50.626 57.6818 50.4996C57.614 50.3686 57.5169 50.2693 57.3905 50.2015C57.2685 50.1293 57.1285 50.0931 56.9705 50.0931C56.8124 50.0931 56.6702 50.1293 56.5437 50.2015C56.4218 50.2693 56.3269 50.3686 56.2592 50.4996C56.1914 50.6305 56.1576 50.7864 56.1576 50.967V53.128H55.3921Z" fill="#251F20"/>
<path d="M50.4841 53.1282L49.2241 49.4634H50.037L50.999 52.3831H50.7144L51.6967 49.4634H52.3944L53.3699 52.3831H53.0854L54.0541 49.4634H54.867L53.6003 53.1282H52.9093L51.9202 50.1408H52.1709L51.1819 53.1282H50.4841Z" fill="#251F20"/>
<path d="M47.0055 53.2093C46.6532 53.2093 46.3303 53.1257 46.0368 52.9586C45.7477 52.7915 45.5174 52.5634 45.3458 52.2744C45.1742 51.9854 45.0884 51.658 45.0884 51.2922C45.0884 50.9218 45.1742 50.5944 45.3458 50.3099C45.5174 50.0209 45.7477 49.7951 46.0368 49.6325C46.3258 49.4654 46.6487 49.3818 47.0055 49.3818C47.3668 49.3818 47.6897 49.4654 47.9742 49.6325C48.2632 49.7951 48.4913 50.0209 48.6584 50.3099C48.83 50.5944 48.9158 50.9218 48.9158 51.2922C48.9158 51.6625 48.83 51.9922 48.6584 52.2812C48.4868 52.5702 48.2564 52.7983 47.9674 52.9654C47.6784 53.128 47.3577 53.2093 47.0055 53.2093ZM47.0055 52.498C47.2222 52.498 47.4142 52.446 47.5813 52.3422C47.7484 52.2383 47.8793 52.096 47.9742 51.9154C48.0735 51.7302 48.1232 51.5225 48.1232 51.2922C48.1232 51.0618 48.0735 50.8564 47.9742 50.6757C47.8793 50.4951 47.7484 50.3528 47.5813 50.2489C47.4142 50.1451 47.2222 50.0931 47.0055 50.0931C46.7932 50.0931 46.6013 50.1451 46.4297 50.2489C46.2626 50.3528 46.1293 50.4951 46.03 50.6757C45.9352 50.8564 45.8877 51.0618 45.8877 51.2922C45.8877 51.5225 45.9352 51.7302 46.03 51.9154C46.1293 52.096 46.2626 52.2383 46.4297 52.3422C46.6013 52.446 46.7932 52.498 47.0055 52.498Z" fill="#251F20"/>
<path d="M41.2681 53.128V49.4631H41.9997V50.1812L41.9116 50.0864C42.0019 49.856 42.1465 49.6822 42.3452 49.5647C42.5439 49.4428 42.7742 49.3818 43.0361 49.3818C43.3071 49.3818 43.5465 49.4405 43.7542 49.558C43.9619 49.6754 44.1245 49.838 44.2419 50.0457C44.3594 50.2534 44.4181 50.4928 44.4181 50.7638V53.128H43.6594V50.967C43.6594 50.7818 43.6255 50.626 43.5577 50.4996C43.49 50.3686 43.3929 50.2693 43.2665 50.2015C43.1445 50.1293 43.0045 50.0931 42.8465 50.0931C42.6884 50.0931 42.5461 50.1293 42.4197 50.2015C42.2977 50.2693 42.2029 50.3686 42.1352 50.4996C42.0674 50.6305 42.0336 50.7864 42.0336 50.967V53.128H41.2681Z" fill="#251F20"/>
<path d="M37.4243 53.1281V48H38.1898V51.4345L37.8917 51.36L39.7275 49.4632H40.6827L39.3008 50.9332L40.7437 53.1281H39.863L38.5759 51.1839L39.0298 51.1229L37.9459 52.2745L38.1898 51.7665V53.1281H37.4243Z" fill="#251F20"/>
<path d="M32.7085 54.6185C32.6182 54.6185 32.5278 54.6095 32.4375 54.5914C32.3517 54.5779 32.2727 54.5553 32.2004 54.5237V53.8666C32.2546 53.8802 32.3201 53.8914 32.3969 53.9005C32.4736 53.914 32.5482 53.9208 32.6204 53.9208C32.8327 53.9208 32.9885 53.8734 33.0878 53.7785C33.1917 53.6882 33.2843 53.5482 33.3656 53.3585L33.6095 52.8031L33.5959 53.4466L32.0107 49.4634H32.8304L34.0024 52.5185H33.7246L34.8898 49.4634H35.7162L34.0972 53.5279C34.0114 53.7447 33.903 53.9343 33.772 54.0969C33.6456 54.264 33.4943 54.3927 33.3182 54.4831C33.1465 54.5734 32.9433 54.6185 32.7085 54.6185Z" fill="#251F20"/>
<path d="M30.7231 53.1281V48H31.4886V53.1281H30.7231Z" fill="#251F20"/>
<path d="M28.2686 53.1283V49.4634H29.0002V50.2018L28.9324 50.0934C29.0137 49.8541 29.1447 49.6825 29.3253 49.5786C29.506 49.4702 29.7227 49.416 29.9757 49.416H30.1992V50.1138H29.8808C29.6279 50.1138 29.4224 50.1928 29.2644 50.3509C29.1108 50.5044 29.034 50.7257 29.034 51.0147V53.1283H28.2686Z" fill="#251F20"/>
<path d="M25.835 53.2093C25.4692 53.2093 25.144 53.1257 24.8595 52.9586C24.5795 52.787 24.3605 52.5567 24.2024 52.2676C24.0444 51.9741 23.9653 51.6467 23.9653 51.2854C23.9653 50.9151 24.0444 50.5876 24.2024 50.3031C24.365 50.0186 24.5818 49.7951 24.8528 49.6325C25.1237 49.4654 25.4308 49.3818 25.774 49.3818C26.0495 49.3818 26.2957 49.4293 26.5124 49.5241C26.7292 49.6189 26.9121 49.7499 27.0611 49.917C27.2102 50.0796 27.3231 50.267 27.3998 50.4793C27.4811 50.6915 27.5218 50.9173 27.5218 51.1567C27.5218 51.2154 27.5195 51.2764 27.515 51.3396C27.5105 51.4028 27.5015 51.4615 27.4879 51.5157H24.5682V50.906H27.0544L26.6886 51.1838C26.7337 50.9625 26.7179 50.766 26.6411 50.5944C26.5689 50.4183 26.456 50.2805 26.3024 50.1812C26.1534 50.0773 25.9773 50.0254 25.774 50.0254C25.5708 50.0254 25.3902 50.0773 25.2321 50.1812C25.074 50.2805 24.9521 50.4251 24.8663 50.6147C24.7805 50.7999 24.7466 51.0257 24.7647 51.2922C24.7421 51.5405 24.776 51.7573 24.8663 51.9425C24.9611 52.1276 25.0921 52.2722 25.2592 52.376C25.4308 52.4799 25.625 52.5318 25.8418 52.5318C26.0631 52.5318 26.2505 52.4822 26.404 52.3828C26.5621 52.2834 26.6863 52.1547 26.7766 51.9967L27.3998 52.3015C27.3276 52.4731 27.2147 52.6289 27.0611 52.7689C26.9121 52.9044 26.7315 53.0128 26.5192 53.0941C26.3115 53.1709 26.0834 53.2093 25.835 53.2093Z" fill="#251F20"/>
<path d="M17.8892 53.128V49.4631H18.6208V50.2557L18.5259 50.1338C18.6027 49.8854 18.7427 49.698 18.9459 49.5715C19.1492 49.4451 19.3817 49.3818 19.6437 49.3818C19.9372 49.3818 20.1969 49.4609 20.4227 49.6189C20.653 49.7725 20.8066 49.978 20.8834 50.2354L20.6666 50.2557C20.775 49.9622 20.9398 49.7431 21.1611 49.5986C21.3869 49.4541 21.6443 49.3818 21.9334 49.3818C22.1863 49.3818 22.4143 49.4405 22.6175 49.558C22.8253 49.6754 22.9901 49.838 23.1121 50.0457C23.234 50.2534 23.295 50.4905 23.295 50.757V53.128H22.5295V50.967C22.5295 50.7818 22.4956 50.626 22.4279 50.4996C22.3646 50.3686 22.2743 50.2693 22.1569 50.2015C22.044 50.1293 21.9108 50.0931 21.7572 50.0931C21.6037 50.0931 21.4682 50.1293 21.3508 50.2015C21.2334 50.2693 21.1408 50.3686 21.073 50.4996C21.0053 50.6305 20.9714 50.7864 20.9714 50.967V53.128H20.2127V50.967C20.2127 50.7818 20.1788 50.626 20.1111 50.4996C20.0479 50.3686 19.9575 50.2693 19.8401 50.2015C19.7272 50.1293 19.5917 50.0931 19.4337 50.0931C19.2801 50.0931 19.1446 50.1293 19.0272 50.2015C18.9098 50.2693 18.8172 50.3686 18.7495 50.4996C18.6863 50.6305 18.6546 50.7864 18.6546 50.967V53.128H17.8892Z" fill="#251F20"/>
<path d="M15.4346 53.1283V49.4634H16.1662V50.2018L16.0984 50.0934C16.1797 49.8541 16.3107 49.6825 16.4913 49.5786C16.672 49.4702 16.8888 49.416 17.1417 49.416H17.3652V50.1138H17.0468C16.7939 50.1138 16.5884 50.1928 16.4304 50.3509C16.2768 50.5044 16.2001 50.7257 16.2001 51.0147V53.1283H15.4346Z" fill="#251F20"/>
<path d="M12.777 53.2093C12.4247 53.2093 12.1018 53.1257 11.8083 52.9586C11.5192 52.7915 11.2889 52.5634 11.1173 52.2744C10.9457 51.9854 10.8599 51.658 10.8599 51.2922C10.8599 50.9218 10.9457 50.5944 11.1173 50.3099C11.2889 50.0209 11.5192 49.7951 11.8083 49.6325C12.0973 49.4654 12.4202 49.3818 12.777 49.3818C13.1383 49.3818 13.4612 49.4654 13.7457 49.6325C14.0347 49.7951 14.2628 50.0209 14.4299 50.3099C14.6015 50.5944 14.6873 50.9218 14.6873 51.2922C14.6873 51.6625 14.6015 51.9922 14.4299 52.2812C14.2583 52.5702 14.0279 52.7983 13.7389 52.9654C13.4499 53.128 13.1292 53.2093 12.777 53.2093ZM12.777 52.498C12.9937 52.498 13.1857 52.446 13.3528 52.3422C13.5199 52.2383 13.6508 52.096 13.7457 51.9154C13.845 51.7302 13.8947 51.5225 13.8947 51.2922C13.8947 51.0618 13.845 50.8564 13.7457 50.6757C13.6508 50.4951 13.5199 50.3528 13.3528 50.2489C13.1857 50.1451 12.9937 50.0931 12.777 50.0931C12.5647 50.0931 12.3728 50.1451 12.2012 50.2489C12.0341 50.3528 11.9008 50.4951 11.8015 50.6757C11.7066 50.8564 11.6592 51.0618 11.6592 51.2922C11.6592 51.5225 11.7066 51.7302 11.8015 51.9154C11.9008 52.096 12.0341 52.2383 12.2012 52.3422C12.3728 52.446 12.5647 52.498 12.777 52.498Z" fill="#251F20"/>
<path d="M8.83562 53.1281V50.1542H8.1582V49.4632H8.83562V49.2735C8.83562 48.9981 8.89207 48.7677 9.00498 48.5826C9.11788 48.3929 9.27369 48.2484 9.4724 48.149C9.67562 48.0497 9.9082 48 10.1701 48C10.2198 48 10.2763 48.0045 10.3395 48.0135C10.4027 48.0181 10.4547 48.0248 10.4953 48.0339V48.6977C10.4592 48.6887 10.4185 48.6842 10.3734 48.6842C10.3282 48.6797 10.2921 48.6774 10.265 48.6774C10.0618 48.6774 9.89917 48.7248 9.77724 48.8197C9.6553 48.91 9.59433 49.0613 9.59433 49.2735V49.4632H10.4343V50.1542H9.59433V53.1281H8.83562Z" fill="#251F20"/>
<path d="M7.12452 54.2117C6.75419 53.7782 6.47419 53.304 6.28452 52.7891C6.09484 52.2743 6 51.7256 6 51.143C6 50.5559 6.09484 50.0049 6.28452 49.4901C6.47419 48.9752 6.75419 48.5056 7.12452 48.0811H7.76806C7.44742 48.5552 7.20355 49.0498 7.03645 49.5646C6.87387 50.0749 6.79258 50.6011 6.79258 51.143C6.79258 51.6804 6.87387 52.2088 7.03645 52.7282C7.20355 53.243 7.44742 53.7375 7.76806 54.2117H7.12452Z" fill="#251F20"/>
</g>
<defs>
<clipPath id="clip0_3001_276">
<rect width="119" height="55" fill="white"/>
</clipPath>
</defs>
</svg>
