<svg width="70" height="70" viewBox="0 0 70 70" fill="none" xmlns="http://www.w3.org/2000/svg">
<path d="M64.3376 64.1761H5.66235C2.53514 64.1761 0 61.8689 0 59.023V14.5593C0 11.7134 2.53514 9.40625 5.66235 9.40625H64.3376C67.4649 9.40625 70 11.7134 70 14.5593V59.023C70 61.8689 67.4649 64.1761 64.3376 64.1761Z" fill="#F8D57E"/>
<path d="M63.0269 62.958H6.96855C3.98076 62.958 1.55859 60.7537 1.55859 58.0347V15.5542C1.55859 12.8352 3.98061 10.6309 6.96855 10.6309H63.0267C66.0145 10.6309 68.4367 12.835 68.4367 15.5542V58.0348C68.4368 60.7539 66.0147 62.958 63.0269 62.958Z" fill="#E1C379"/>
<path d="M66.2036 23.796L52.0901 1.54965C51.1501 0.067757 49.0678 -0.440016 47.4394 0.415706L2.94141 23.796H66.2036Z" fill="#009379"/>
<path d="M65.7627 20.9619C68.1028 20.9619 70 22.6887 70 24.8184V59.0244C70 61.8703 67.465 64.1776 64.3379 64.1777H5.66211C2.53493 64.1775 7.47289e-07 61.8702 0 59.0244V24.8184C0 22.6887 1.89716 20.9619 4.2373 20.9619H65.7627Z" fill="#FF6250"/>
<path d="M54.6648 69.9614L5.52624 64.7677C2.3762 64.4347 0 62.0067 0 59.1207V14.1826C0 15.1484 0.795171 15.9608 1.84904 16.0722L56.1059 21.807C59.256 22.1401 61.6322 24.568 61.6322 27.454V64.3145C61.6322 67.714 58.3753 70.3538 54.6648 69.9614Z" fill="#F8D57E"/>
<path d="M4.40368 21.1901C4.36252 21.1901 4.32076 21.188 4.27884 21.1839L2.03019 20.9588C1.40913 20.8966 0.960994 20.3883 1.02935 19.8232C1.0977 19.2582 1.65671 18.8508 2.27717 18.9124L4.52582 19.1375C5.14688 19.1997 5.59502 19.708 5.52666 20.273C5.46296 20.8001 4.97291 21.1901 4.40368 21.1901Z" fill="#F8D57E"/>
<path d="M50.6086 66.5614C50.5611 66.5614 50.5128 66.5585 50.4644 66.5531L46.094 66.0474C45.4745 65.9757 45.0358 65.4603 45.1147 64.8962C45.1935 64.3324 45.7598 63.9355 46.3796 64.0049L50.75 64.5106C51.3695 64.5823 51.8084 65.0977 51.7293 65.6618C51.6565 66.1816 51.1697 66.5614 50.6086 66.5614ZM54.9103 66.0519C54.4861 66.0519 54.0791 65.8335 53.8863 65.4608C53.62 64.9466 53.8623 64.3332 54.4275 64.091C55.5751 63.5989 56.4382 62.7826 56.7956 61.8513C57.0015 61.3148 57.6469 61.0318 58.2364 61.2189C58.8261 61.4063 59.1374 61.9934 58.9314 62.5301C58.367 64.0009 57.11 65.2168 55.3917 65.9534C55.2359 66.0201 55.072 66.0519 54.9103 66.0519ZM41.868 65.55C41.8206 65.55 41.7722 65.5471 41.7238 65.5416L37.3535 65.0359C36.7339 64.9643 36.2951 64.4488 36.3741 63.8847C36.453 63.3209 37.0192 62.9239 37.639 62.9935L42.0094 63.4992C42.629 63.5708 43.0678 64.0863 42.9888 64.6504C42.9159 65.17 42.4289 65.55 41.868 65.55ZM33.1275 64.5384C33.08 64.5384 33.0318 64.5355 32.9832 64.53L28.6129 64.0243C27.9933 63.9527 27.5545 63.4373 27.6335 62.8732C27.7124 62.3093 28.2788 61.9104 28.8985 61.9819L33.2688 62.4876C33.8884 62.5592 34.3272 63.0747 34.2482 63.6388C34.1753 64.1584 33.6883 64.5384 33.1275 64.5384ZM24.3866 63.5268C24.3391 63.5268 24.2909 63.5239 24.2424 63.5185L19.8719 63.0126C19.2522 62.9408 18.8135 62.4255 18.8925 61.8614C18.9714 61.2975 19.5379 60.9004 20.1574 60.9702L24.528 61.476C25.1477 61.5478 25.5863 62.0631 25.5073 62.6272C25.4348 63.1471 24.9477 63.5268 24.3866 63.5268ZM15.646 62.5152C15.5985 62.5152 15.5503 62.5124 15.5018 62.5069L11.1313 62.001C10.5116 61.9292 10.0729 61.414 10.1519 60.8499C10.2308 60.2859 10.7973 59.8887 11.4169 59.9586L15.7874 60.4644C16.4071 60.5362 16.8458 61.0515 16.7667 61.6156C16.694 62.1356 16.2071 62.5152 15.646 62.5152ZM58.1173 59.2374C57.4925 59.2374 56.9862 58.7767 56.9862 58.208V54.1988C56.9862 53.6301 57.4925 53.1694 58.1173 53.1694C58.7421 53.1694 59.2484 53.6301 59.2484 54.1988V58.208C59.2485 58.7767 58.7422 59.2374 58.1173 59.2374ZM58.1173 51.219C57.4925 51.219 56.9862 50.7582 56.9862 50.1896V46.1803C56.9862 45.6117 57.4925 45.151 58.1173 45.151C58.7421 45.151 59.2484 45.6117 59.2484 46.1803V50.1896C59.2485 50.7581 58.7422 51.219 58.1173 51.219ZM58.1173 43.2004C57.4925 43.2004 56.9862 42.7397 56.9862 42.1711V38.1618C56.9862 37.5932 57.4925 37.1324 58.1173 37.1324C58.7421 37.1324 59.2484 37.5932 59.2484 38.1618V42.1711C59.2485 42.7395 58.7422 43.2004 58.1173 43.2004ZM58.1173 35.1819C57.4925 35.1819 56.9862 34.7211 56.9862 34.1525V30.1432C56.9862 29.5746 57.4925 29.1139 58.1173 29.1139C58.7421 29.1139 59.2484 29.5746 59.2484 30.1432V34.1525C59.2485 34.721 58.7422 35.1819 58.1173 35.1819ZM56.5354 27.5742C56.2561 27.5742 55.9762 27.4805 55.7576 27.292C54.9192 26.569 53.7556 26.1084 52.4809 25.9948L52.451 25.9919C51.8298 25.9311 51.3805 25.4234 51.4475 24.8582C51.5144 24.2929 52.072 23.8838 52.6932 23.945L52.7124 23.9469C54.4742 24.104 56.112 24.7616 57.3137 25.7975C57.7673 26.1885 57.7865 26.8401 57.3568 27.2529C57.1342 27.4663 56.8351 27.5742 56.5354 27.5742ZM48.1941 25.5597C48.1529 25.5597 48.1112 25.5576 48.0693 25.5534L43.6902 25.1153C43.0693 25.0531 42.621 24.5447 42.6894 23.9797C42.7577 23.4146 43.3167 23.0079 43.9372 23.0689L48.3162 23.507C48.9371 23.5693 49.3854 24.0776 49.3171 24.6426C49.2535 25.1695 48.7633 25.5597 48.1941 25.5597ZM39.4361 24.6834C39.3949 24.6834 39.3532 24.6812 39.3113 24.6771L34.932 24.2389C34.3111 24.1767 33.8628 23.6684 33.9312 23.1033C33.9994 22.5381 34.5593 22.131 35.179 22.1925L39.5582 22.6307C40.1791 22.6929 40.6274 23.2012 40.5591 23.7663C40.4954 24.2933 40.0053 24.6834 39.4361 24.6834ZM30.6777 23.8071C30.6365 23.8071 30.5947 23.805 30.5528 23.8009L26.1737 23.3627C25.5528 23.3005 25.1045 22.7921 25.1729 22.2271C25.2411 21.662 25.7998 21.2549 26.4207 21.3163L30.7998 21.7544C31.4207 21.8167 31.869 22.325 31.8006 22.89C31.7371 23.4169 31.247 23.8071 30.6777 23.8071ZM21.9194 22.9309C21.8782 22.9309 21.8364 22.9287 21.7945 22.9246L17.4154 22.4864C16.7944 22.4242 16.3462 21.9159 16.4146 21.3509C16.4828 20.7859 17.0409 20.3789 17.6624 20.44L22.0415 20.8782C22.6624 20.9404 23.1107 21.4487 23.0423 22.0138C22.9789 22.5407 22.4887 22.9309 21.9194 22.9309ZM13.1611 22.0545C13.1199 22.0545 13.0781 22.0524 13.0362 22.0483L8.65714 21.6101C8.03623 21.5479 7.58794 21.0395 7.6563 20.4745C7.72465 19.9096 8.28291 19.5027 8.90412 19.5637L13.2832 20.0018C13.9042 20.0641 14.3524 20.5724 14.284 21.1374C14.2205 21.6643 13.7303 22.0545 13.1611 22.0545Z" fill="#F8D57E"/>
<path d="M6.89855 61.5101C6.85108 61.5101 6.80301 61.5074 6.75448 61.5018L4.51019 61.2421C3.89049 61.1705 3.45166 60.6551 3.53068 60.0911C3.6094 59.5271 4.17577 59.1282 4.79548 59.1997L7.03977 59.4593C7.65947 59.531 8.0983 60.0464 8.01927 60.6104C7.94656 61.1303 7.45951 61.5101 6.89855 61.5101Z" fill="#F8D57E"/>
<path d="M48.4534 7.66878L41.2141 11.2538C40.2711 11.7207 39.0908 11.4037 38.5776 10.5455C38.0645 9.68729 38.4129 8.61309 39.3559 8.14606L46.5954 4.56116C47.5384 4.09426 48.7187 4.41131 49.2319 5.2695C49.745 6.12754 49.3966 7.20188 48.4534 7.66878Z" fill="white"/>
<path d="M50.3637 51.6673C53.4263 51.6673 55.909 49.4079 55.909 46.6208C55.909 43.8336 53.4263 41.5742 50.3637 41.5742C47.3011 41.5742 44.8184 43.8336 44.8184 46.6208C44.8184 49.4079 47.3011 51.6673 50.3637 51.6673Z" fill="url(#paint0_linear_1601_22260)"/>
<path d="M50.3602 50.1013C52.4738 50.1013 54.1872 48.542 54.1872 46.6185C54.1872 44.695 52.4738 43.1357 50.3602 43.1357C48.2466 43.1357 46.5332 44.695 46.5332 46.6185C46.5332 48.542 48.2466 50.1013 50.3602 50.1013Z" fill="url(#paint1_linear_1601_22260)"/>
<defs>
<linearGradient id="paint0_linear_1601_22260" x1="50.3625" y1="43.4536" x2="50.3625" y2="50.7513" gradientUnits="userSpaceOnUse">
<stop stop-color="#FF4C54"/>
<stop offset="1" stop-color="#BE3F45"/>
</linearGradient>
<linearGradient id="paint1_linear_1601_22260" x1="50.359" y1="48.8055" x2="50.359" y2="43.7697" gradientUnits="userSpaceOnUse">
<stop stop-color="#FF4C54"/>
<stop offset="1" stop-color="#BE3F45"/>
</linearGradient>
</defs>
</svg>
