<svg width="70" height="70" viewBox="0 0 70 70" fill="none" xmlns="http://www.w3.org/2000/svg">
<path d="M69.7056 34.4603C69.4147 15.1299 53.7881 -0.292106 34.8159 0.00419918C15.8368 0.300505 0.695061 16.2163 0.985985 35.5397C1.27691 54.8701 16.9035 70.2921 35.8757 69.9958C54.8548 69.6995 70.0035 53.7907 69.7056 34.4603Z" fill="url(#paint0_linear_1601_22256)"/>
<path d="M34.8551 63C19.9433 63 7.85482 50.6878 7.85482 35.5C7.85482 20.3122 19.9433 8 34.8551 8C49.767 8 61.8555 20.3122 61.8555 35.5C61.8555 50.6878 49.767 63 34.8551 63Z" fill="#B897FD"/>
<path d="M33.5345 22.8915L33.5646 21L37.152 21.0503L37.1219 22.9417C40.2233 23.5676 41.7815 25.7698 41.7214 29.2238L41.7063 30.0233L37.5578 29.9639L37.5778 28.9085C37.6079 27.0901 36.8213 26.3866 35.4284 26.3683C34.0355 26.35 33.2239 27.0262 33.1938 28.8445C33.1036 34.0803 41.6713 34.455 41.551 41.7239C41.4909 45.1778 39.8225 47.3708 36.701 47.9099L36.671 49.7648L33.0836 49.7146L33.1136 47.8597C29.9722 47.2338 28.419 44.9951 28.4741 41.5411L28.5041 39.7958L32.6527 39.8552L32.6176 41.8563C32.5875 43.6747 33.4543 44.3417 34.8472 44.36C36.2451 44.3783 37.1319 43.7387 37.162 41.9203C37.2522 36.6845 28.6845 36.3099 28.8048 29.041C28.8649 25.6281 30.4582 23.4671 33.5345 22.8915Z" fill="#3B3B3B"/>
<defs>
<linearGradient id="paint0_linear_1601_22256" x1="14.8461" y1="-5.26542e-07" x2="72.7575" y2="68.2318" gradientUnits="userSpaceOnUse">
<stop stop-color="#BA99FD"/>
<stop offset="1" stop-color="#CEC0FD"/>
</linearGradient>
</defs>
</svg>
