<svg width="71" height="70" viewBox="0 0 71 70" fill="none" xmlns="http://www.w3.org/2000/svg">
<rect x="11" y="8" width="59.1111" height="43.5556" rx="8" fill="url(#paint0_linear_1601_22252)"/>
<rect y="17" width="61.0714" height="45" rx="8" fill="url(#paint1_linear_1601_22252)"/>
<path d="M11.4668 25.9563C10.9349 25.3911 10.182 25.0361 9.34441 25.0361C7.73357 25.0361 6.42773 26.342 6.42773 27.9528C6.42773 28.7903 6.78259 29.5432 7.34789 30.0752L13.6396 36.3669C14.1716 36.9321 14.9245 37.2871 15.762 37.2871C17.3728 37.2871 18.6787 35.9812 18.6787 34.3704C18.6787 33.5329 18.3237 32.78 17.7585 32.248L11.4668 25.9563Z" fill="url(#paint2_linear_1601_22252)"/>
<path d="M8.91668 30.8695C10.5275 30.8695 11.8334 29.5637 11.8334 27.9528C11.8334 26.342 10.5275 25.0361 8.91668 25.0361C7.30584 25.0361 6 26.342 6 27.9528C6 29.5637 7.30584 30.8695 8.91668 30.8695Z" fill="#F8D57E"/>
<path d="M19.7177 25.9563C19.1858 25.3911 18.433 25.0361 17.5954 25.0361C15.9845 25.0361 14.6787 26.342 14.6787 27.9528C14.6787 28.7903 15.0336 29.5432 15.5989 30.0752L21.8906 36.3669C22.4226 36.9321 23.1755 37.2871 24.013 37.2871C25.6238 37.2871 26.9296 35.9812 26.9296 34.3704C26.9296 33.5329 26.5747 32.78 26.0095 32.248L19.7177 25.9563Z" fill="url(#paint3_linear_1601_22252)"/>
<path d="M17.5954 30.8695C19.2062 30.8695 20.5121 29.5637 20.5121 27.9528C20.5121 26.342 19.2062 25.0361 17.5954 25.0361C15.9846 25.0361 14.6787 26.342 14.6787 27.9528C14.6787 29.5637 15.9846 30.8695 17.5954 30.8695Z" fill="#F8D57E"/>
<path d="M27.9638 25.9563C27.4319 25.3911 26.6791 25.0361 25.8415 25.0361C24.2306 25.0361 22.9248 26.342 22.9248 27.9528C22.9248 28.7903 23.2798 29.5432 23.845 30.0752L30.1367 36.3669C30.6687 36.9321 31.4216 37.2871 32.2591 37.2871C33.8699 37.2871 35.1757 35.9812 35.1757 34.3704C35.1757 33.5329 34.8208 32.78 34.2556 32.248L27.9638 25.9563Z" fill="url(#paint4_linear_1601_22252)"/>
<path d="M25.8415 30.8695C27.4523 30.8695 28.7582 29.5637 28.7582 27.9528C28.7582 26.342 27.4523 25.0361 25.8415 25.0361C24.2306 25.0361 22.9248 26.342 22.9248 27.9528C22.9248 29.5637 24.2306 30.8695 25.8415 30.8695Z" fill="#F8D57E"/>
<defs>
<linearGradient id="paint0_linear_1601_22252" x1="11" y1="8" x2="70.1111" y2="51.5556" gradientUnits="userSpaceOnUse">
<stop stop-color="#A7F4CE"/>
<stop offset="1" stop-color="#7DE5AE"/>
</linearGradient>
<linearGradient id="paint1_linear_1601_22252" x1="0" y1="17" x2="61.0714" y2="62" gradientUnits="userSpaceOnUse">
<stop stop-color="#3D81FF"/>
<stop offset="1" stop-color="#65E2FD"/>
</linearGradient>
<linearGradient id="paint2_linear_1601_22252" x1="15.8326" y1="34.4416" x2="3.21787" y2="21.8272" gradientUnits="userSpaceOnUse">
<stop stop-color="#00A2F3" stop-opacity="0"/>
<stop offset="1" stop-color="#0075CD"/>
</linearGradient>
<linearGradient id="paint3_linear_1601_22252" x1="24.083" y1="34.4413" x2="11.4686" y2="21.8269" gradientUnits="userSpaceOnUse">
<stop stop-color="#00A2F3" stop-opacity="0"/>
<stop offset="1" stop-color="#0075CD"/>
</linearGradient>
<linearGradient id="paint4_linear_1601_22252" x1="32.3291" y1="34.4414" x2="19.7147" y2="21.827" gradientUnits="userSpaceOnUse">
<stop stop-color="#00A2F3" stop-opacity="0"/>
<stop offset="1" stop-color="#0075CD"/>
</linearGradient>
</defs>
</svg>
