<svg width="101" height="111" viewBox="0 0 101 111" fill="none" xmlns="http://www.w3.org/2000/svg">
<mask id="mask0_2008_8" style="mask-type:luminance" maskUnits="userSpaceOnUse" x="0" y="40" width="74" height="71">
<path d="M0.260376 40.5123H73.5938V110.512H0.260376V40.5123Z" fill="white"/>
</mask>
<g mask="url(#mask0_2008_8)">
<mask id="mask1_2008_8" style="mask-type:luminance" maskUnits="userSpaceOnUse" x="-13" y="10" width="117" height="113">
<path d="M-12.5391 61.2544L28.8151 10.8638L103.464 72.1138L62.1225 122.505L-12.5391 61.2544Z" fill="white"/>
</mask>
<g mask="url(#mask1_2008_8)">
<mask id="mask2_2008_8" style="mask-type:luminance" maskUnits="userSpaceOnUse" x="-13" y="10" width="117" height="113">
<path d="M-12.5391 61.2544L28.8151 10.8638L103.464 72.1138L62.1225 122.505L-12.5391 61.2544Z" fill="white"/>
</mask>
<g mask="url(#mask2_2008_8)">
<path d="M66.7449 42.283L8.93237 47.6867C-2.23952 48.7283 -1.11973 70.6164 12.0834 69.145L47.9689 65.1737L50.2215 101.528C50.9116 112.596 72.4481 110.799 71.5106 99.5747L66.7449 42.283Z" fill="#18CB96"/>
</g>
</g>
</g>
<mask id="mask3_2008_8" style="mask-type:luminance" maskUnits="userSpaceOnUse" x="26" y="0" width="75" height="71">
<path d="M26.927 0.512207H100.26V70.5123H26.927V0.512207Z" fill="white"/>
</mask>
<g mask="url(#mask3_2008_8)">
<mask id="mask4_2008_8" style="mask-type:luminance" maskUnits="userSpaceOnUse" x="15" y="-30" width="117" height="113">
<path d="M15.2473 21.5278L56.0807 -29.2795L131.354 31.2023L90.5338 82.0096L15.2473 21.5278Z" fill="white"/>
</mask>
<g mask="url(#mask4_2008_8)">
<mask id="mask5_2008_8" style="mask-type:luminance" maskUnits="userSpaceOnUse" x="15" y="-30" width="117" height="113">
<path d="M15.2473 21.5278L56.0807 -29.2795L131.354 31.2023L90.5338 82.0096L15.2473 21.5278Z" fill="white"/>
</mask>
<g mask="url(#mask5_2008_8)">
<path d="M94.3358 1.74908L36.5753 7.75169C25.4164 8.91055 26.7576 30.7726 39.9477 29.171L75.7941 24.822L78.4243 61.1632C79.2186 72.2179 100.729 70.1997 99.6873 58.9887L94.3358 1.74908Z" fill="#18CB96"/>
</g>
</g>
</g>
</svg>
