<svg width="256" height="85" viewBox="0 0 256 85" fill="none" xmlns="http://www.w3.org/2000/svg">
<mask id="mask0_2007_11" style="mask-type:luminance" maskUnits="userSpaceOnUse" x="0" y="0" width="256" height="85">
<path d="M255.272 0.354614H0.605713V84.3546H255.272V0.354614Z" fill="white"/>
</mask>
<g mask="url(#mask0_2007_11)">
<mask id="mask1_2007_11" style="mask-type:luminance" maskUnits="userSpaceOnUse" x="203" y="43" width="30" height="29">
<path d="M203.272 43.0212H232.606V71.0212H203.272V43.0212Z" fill="white"/>
</mask>
<g mask="url(#mask1_2007_11)">
<mask id="mask2_2007_11" style="mask-type:luminance" maskUnits="userSpaceOnUse" x="198" y="31" width="47" height="45">
<path d="M198.153 51.3181L214.694 31.1619L244.554 55.6619L228.017 75.8181L198.153 51.3181Z" fill="white"/>
</mask>
<g mask="url(#mask2_2007_11)">
<mask id="mask3_2007_11" style="mask-type:luminance" maskUnits="userSpaceOnUse" x="198" y="31" width="47" height="45">
<path d="M198.153 51.3181L214.694 31.1619L244.554 55.6619L228.017 75.8181L198.153 51.3181Z" fill="white"/>
</mask>
<g mask="url(#mask3_2007_11)">
<path d="M229.866 43.7296L206.741 45.891C202.272 46.3077 202.72 55.0629 208.002 54.4743L222.356 52.8858L223.257 67.4275C223.533 71.8546 232.147 71.1358 231.772 66.6462L229.866 43.7296Z" fill="#18CB96"/>
</g>
</g>
</g>
<mask id="mask4_2007_11" style="mask-type:luminance" maskUnits="userSpaceOnUse" x="213" y="27" width="31" height="29">
<path d="M213.939 27.0212H243.272V55.0212H213.939V27.0212Z" fill="white"/>
</mask>
<g mask="url(#mask4_2007_11)">
<mask id="mask5_2007_11" style="mask-type:luminance" maskUnits="userSpaceOnUse" x="209" y="15" width="47" height="45">
<path d="M209.267 35.4275L225.601 15.1046L255.71 39.2973L239.382 59.6202L209.267 35.4275Z" fill="white"/>
</mask>
<g mask="url(#mask5_2007_11)">
<mask id="mask6_2007_11" style="mask-type:luminance" maskUnits="userSpaceOnUse" x="209" y="15" width="47" height="45">
<path d="M209.267 35.4275L225.601 15.1046L255.71 39.2973L239.382 59.6202L209.267 35.4275Z" fill="white"/>
</mask>
<g mask="url(#mask6_2007_11)">
<path d="M240.903 27.516L217.798 29.917C213.335 30.3806 213.871 39.1254 219.147 38.4847L233.486 36.7452L234.538 51.2816C234.856 55.7035 243.46 54.8962 243.043 50.4118L240.903 27.516Z" fill="#18CB96"/>
</g>
</g>
</g>
<mask id="mask7_2007_11" style="mask-type:luminance" maskUnits="userSpaceOnUse" x="0" y="0" width="194" height="84">
<path d="M0.980713 0.406677H193.939V83.6098H0.980713V0.406677Z" fill="white"/>
</mask>
<g mask="url(#mask7_2007_11)">
<mask id="mask8_2007_11" style="mask-type:luminance" maskUnits="userSpaceOnUse" x="0" y="0" width="194" height="85">
<path d="M193.939 0.354614H0.605713V84.3546H193.939V0.354614Z" fill="white"/>
</mask>
<g mask="url(#mask8_2007_11)">
<mask id="mask9_2007_11" style="mask-type:luminance" maskUnits="userSpaceOnUse" x="0" y="20" width="45" height="46">
<path d="M0.980713 20.3546H44.6057V65.6879H0.980713V20.3546Z" fill="white"/>
</mask>
<g mask="url(#mask9_2007_11)">
<path d="M39.4432 21.5974C40.7765 21.5974 41.7817 21.9672 42.464 22.7016C43.1567 23.4412 43.5057 24.2641 43.5057 25.1807C43.5057 26.0557 43.1567 26.863 42.464 27.5974C41.7817 28.337 40.7765 28.7016 39.4432 28.7016H26.589L26.6515 61.9307C26.6515 63.1807 26.1984 64.1078 25.2974 64.7016C24.4067 65.3005 23.5057 65.5974 22.589 65.5974C21.6151 65.5974 20.6984 65.3005 19.839 64.7016C18.9901 64.1078 18.5682 63.1807 18.5682 61.9307V28.7016H5.79736C4.46403 28.7016 3.48486 28.337 2.85986 27.5974C2.23486 26.863 1.92236 26.0557 1.92236 25.1807C1.92236 24.2641 2.23486 23.4412 2.85986 22.7016C3.48486 21.9672 4.46403 21.5974 5.79736 21.5974H39.4432Z" fill="white"/>
</g>
<path d="M60.3588 30.4308C61.6088 30.4308 62.5984 30.6964 63.338 31.2225C64.0723 31.7537 64.4421 32.6183 64.4421 33.8266C64.4421 34.9256 64.0723 35.8006 63.338 36.4516C62.5984 37.0922 61.6088 37.41 60.3588 37.41C57.4526 37.41 55.4109 38.4516 54.2338 40.535C53.0671 42.6079 52.4838 45.41 52.4838 48.9516V62.0766C52.4838 63.0922 52.114 63.9308 51.3796 64.5975C50.6401 65.2641 49.7442 65.5975 48.6921 65.5975C47.4942 65.5975 46.5307 65.2641 45.7963 64.5975C45.0567 63.9308 44.6921 63.0922 44.6921 62.0766V33.9516C44.6921 32.8579 45.114 31.9933 45.963 31.3683C46.8067 30.7433 47.7182 30.4308 48.6921 30.4308C49.6609 30.4308 50.5359 30.7329 51.3171 31.3266C52.0932 31.9256 52.4838 32.8006 52.4838 33.9516V34.3683C53.4942 33.035 54.6713 32.0506 56.0046 31.41C57.3484 30.7589 58.8015 30.4308 60.3588 30.4308Z" fill="white"/>
<path d="M94.4918 30.4308C95.6845 30.4308 96.6377 30.7641 97.346 31.4308C98.0647 32.0975 98.4293 32.9672 98.4293 34.035V62.0141C98.4293 63.0714 98.0647 63.9308 97.346 64.5975C96.6377 65.2641 95.6845 65.5975 94.4918 65.5975C93.3356 65.5975 92.4345 65.337 91.7835 64.8058C91.1429 64.2797 90.7522 63.5766 90.6168 62.7016C89.0439 63.9412 87.2939 64.8475 85.3668 65.4308C83.4345 65.9985 81.596 66.285 79.846 66.285C76.5231 66.285 73.6585 65.5297 71.2418 64.0141C68.8252 62.4881 66.971 60.3422 65.6793 57.5766C64.3877 54.8162 63.7418 51.5922 63.7418 47.91C63.7418 44.3162 64.4554 41.16 65.8877 38.4516C67.3147 35.7329 69.3095 33.5975 71.8668 32.0558C74.4189 30.5141 77.3772 29.7433 80.7418 29.7433C82.2106 29.7433 83.846 30.0245 85.6377 30.5766C87.4397 31.1339 89.1012 32.0089 90.6168 33.2016C90.8095 32.3683 91.2262 31.7016 91.8668 31.2016C92.5022 30.6912 93.3772 30.4308 94.4918 30.4308ZM80.6793 59.3058C82.7054 59.3058 84.6637 58.8631 86.5543 57.9725C88.4397 57.0714 89.7731 55.7433 90.5543 53.9933V42.035C89.6793 40.3422 88.3668 39.035 86.6168 38.1183C84.8668 37.1912 83.096 36.7225 81.3043 36.7225C78.3981 36.7225 76.0595 37.785 74.2835 39.91C72.5022 42.0245 71.6168 44.712 71.6168 47.9725C71.6168 51.3891 72.4397 54.1339 74.096 56.2016C75.7627 58.2745 77.9554 59.3058 80.6793 59.3058Z" fill="white"/>
<path d="M134.481 20.9099C135.45 20.9099 136.361 21.1912 137.21 21.7432C138.069 22.2849 138.502 23.1547 138.502 24.3474V62.0766C138.502 64.4255 137.158 65.5974 134.481 65.5974C132.09 65.5974 130.845 64.4932 130.752 62.2849C129.278 63.5766 127.616 64.5557 125.773 65.2224C123.939 65.8891 122.189 66.2224 120.523 66.2224C117.075 66.2224 114.095 65.4412 111.585 63.8682C109.069 62.3005 107.148 60.113 105.814 57.3057C104.481 54.5037 103.814 51.2797 103.814 47.6391C103.814 44.1391 104.528 41.0557 105.96 38.3891C107.387 35.712 109.382 33.5974 111.939 32.0557C114.491 30.5141 117.45 29.7432 120.814 29.7432C122.325 29.7432 123.96 30.0453 125.71 30.6391C127.46 31.238 129.095 32.1339 130.627 33.3266V24.3474C130.627 23.1547 131.028 22.2849 131.835 21.7432C132.637 21.1912 133.523 20.9099 134.481 20.9099ZM120.731 59.2432C123.033 59.2432 125.116 58.7328 126.981 57.7016C128.856 56.6599 130.111 55.1495 130.752 53.1599L130.689 42.5141C129.908 40.6391 128.632 39.212 126.856 38.2224C125.075 37.2224 123.241 36.7224 121.356 36.7224C118.45 36.7224 116.111 37.7745 114.335 39.8682C112.569 41.9672 111.689 44.5766 111.689 47.7016C111.689 51.0662 112.512 53.8266 114.168 55.9932C115.835 58.1599 118.023 59.2432 120.731 59.2432Z" fill="white"/>
<path d="M152.643 25.2432C152.643 26.3995 152.216 27.2641 151.372 27.8474C150.523 28.4203 149.612 28.7016 148.643 28.7016C147.628 28.7016 146.706 28.4203 145.872 27.8474C145.049 27.2641 144.643 26.3995 144.643 25.2432V24.3474C144.643 23.1547 145.049 22.2849 145.872 21.7432C146.706 21.1912 147.628 20.9099 148.643 20.9099C149.612 20.9099 150.523 21.1912 151.372 21.7432C152.216 22.2849 152.643 23.1547 152.643 24.3474V25.2432ZM144.706 33.8266C144.706 32.7172 145.128 31.8787 145.977 31.3057C146.836 30.7224 147.727 30.4307 148.643 30.4307C149.612 30.4307 150.508 30.7224 151.331 31.3057C152.164 31.8787 152.581 32.6912 152.581 33.7432V62.2224C152.581 63.363 152.164 64.212 151.331 64.7641C150.508 65.3214 149.612 65.5974 148.643 65.5974C147.727 65.5974 146.836 65.3214 145.977 64.7641C145.128 64.212 144.706 63.363 144.706 62.2224V33.8266Z" fill="white"/>
<path d="M173.367 29.7433C177.06 29.7433 180.289 30.5141 183.055 32.0558C185.815 33.5975 187.956 35.7537 189.471 38.5141C190.982 41.2797 191.742 44.5037 191.742 48.1808C191.701 51.7797 190.909 54.9412 189.367 57.66C187.826 60.3683 185.68 62.4881 182.93 64.0141C180.19 65.5297 177.003 66.285 173.367 66.285C169.784 66.285 166.607 65.5297 163.846 64.0141C161.081 62.4881 158.93 60.3683 157.388 57.66C155.846 54.9412 155.044 51.7797 154.992 48.1808C154.992 44.5037 155.763 41.2797 157.305 38.5141C158.846 35.7537 160.997 33.5975 163.763 32.0558C166.523 30.5141 169.727 29.7433 173.367 29.7433ZM173.367 59.3891C176.503 59.3891 179.003 58.3579 180.867 56.285C182.727 54.2016 183.659 51.5037 183.659 48.1808C183.659 44.7797 182.727 42.0089 180.867 39.8683C179.003 37.7329 176.503 36.66 173.367 36.66C170.284 36.66 167.794 37.7329 165.909 39.8683C164.018 42.0089 163.076 44.7797 163.076 48.1808C163.076 51.5037 164.018 54.2016 165.909 56.285C167.794 58.3579 170.284 59.3891 173.367 59.3891Z" fill="white"/>
</g>
</g>
</g>
</svg>
