<svg width="256" height="85" viewBox="0 0 256 85" fill="none" xmlns="http://www.w3.org/2000/svg">
<mask id="mask0_2007_11" style="mask-type:luminance" maskUnits="userSpaceOnUse" x="0" y="0" width="256" height="85">
<path d="M255.224 0.970032H0.557129V84.97H255.224V0.970032Z" fill="white"/>
</mask>
<g mask="url(#mask0_2007_11)">
<mask id="mask1_2007_11" style="mask-type:luminance" maskUnits="userSpaceOnUse" x="203" y="43" width="30" height="29">
<path d="M203.224 43.6367H232.557V71.6367H203.224V43.6367Z" fill="white"/>
</mask>
<g mask="url(#mask1_2007_11)">
<mask id="mask2_2007_11" style="mask-type:luminance" maskUnits="userSpaceOnUse" x="198" y="31" width="47" height="46">
<path d="M198.104 51.9335L214.646 31.7773L244.505 56.2773L227.969 76.4335L198.104 51.9335Z" fill="white"/>
</mask>
<g mask="url(#mask2_2007_11)">
<mask id="mask3_2007_11" style="mask-type:luminance" maskUnits="userSpaceOnUse" x="198" y="31" width="47" height="46">
<path d="M198.104 51.9335L214.646 31.7773L244.505 56.2773L227.969 76.4335L198.104 51.9335Z" fill="white"/>
</mask>
<g mask="url(#mask3_2007_11)">
<path d="M229.818 44.345L206.693 46.5064C202.224 46.9231 202.672 55.6783 207.953 55.0898L222.307 53.5012L223.208 68.0429C223.484 72.47 232.099 71.7512 231.724 67.2616L229.818 44.345Z" fill="#18CB96"/>
</g>
</g>
</g>
<mask id="mask4_2007_11" style="mask-type:luminance" maskUnits="userSpaceOnUse" x="213" y="27" width="31" height="29">
<path d="M213.891 27.6367H243.224V55.6367H213.891V27.6367Z" fill="white"/>
</mask>
<g mask="url(#mask4_2007_11)">
<mask id="mask5_2007_11" style="mask-type:luminance" maskUnits="userSpaceOnUse" x="209" y="15" width="47" height="46">
<path d="M209.219 36.0429L225.552 15.72L255.661 39.9127L239.333 60.2356L209.219 36.0429Z" fill="white"/>
</mask>
<g mask="url(#mask5_2007_11)">
<mask id="mask6_2007_11" style="mask-type:luminance" maskUnits="userSpaceOnUse" x="209" y="15" width="47" height="46">
<path d="M209.219 36.0429L225.552 15.72L255.661 39.9127L239.333 60.2356L209.219 36.0429Z" fill="white"/>
</mask>
<g mask="url(#mask6_2007_11)">
<path d="M240.854 28.1314L217.75 30.5325C213.286 30.996 213.823 39.7408 219.099 39.1002L233.437 37.3606L234.489 51.897C234.807 56.3189 243.411 55.5116 242.995 51.0272L240.854 28.1314Z" fill="#18CB96"/>
</g>
</g>
</g>
<mask id="mask7_2007_11" style="mask-type:luminance" maskUnits="userSpaceOnUse" x="0" y="1" width="194" height="84">
<path d="M0.932129 1.02209H193.89V84.2252H0.932129V1.02209Z" fill="white"/>
</mask>
<g mask="url(#mask7_2007_11)">
<mask id="mask8_2007_11" style="mask-type:luminance" maskUnits="userSpaceOnUse" x="0" y="0" width="194" height="85">
<path d="M193.89 0.970032H0.557129V84.97H193.89V0.970032Z" fill="white"/>
</mask>
<g mask="url(#mask8_2007_11)">
<mask id="mask9_2007_11" style="mask-type:luminance" maskUnits="userSpaceOnUse" x="0" y="20" width="45" height="47">
<path d="M0.932129 20.97H44.5571V66.3034H0.932129V20.97Z" fill="white"/>
</mask>
<g mask="url(#mask9_2007_11)">
<path d="M39.3946 22.2128C40.7279 22.2128 41.7332 22.5826 42.4154 23.317C43.1082 24.0566 43.4571 24.8795 43.4571 25.7962C43.4571 26.6712 43.1082 27.4785 42.4154 28.2128C41.7332 28.9524 40.7279 29.317 39.3946 29.317H26.5404L26.6029 62.5462C26.6029 63.7962 26.1498 64.7232 25.2488 65.317C24.3582 65.916 23.4571 66.2128 22.5404 66.2128C21.5665 66.2128 20.6498 65.916 19.7904 65.317C18.9415 64.7232 18.5196 63.7962 18.5196 62.5462V29.317H5.74878C4.41545 29.317 3.43628 28.9524 2.81128 28.2128C2.18628 27.4785 1.87378 26.6712 1.87378 25.7962C1.87378 24.8795 2.18628 24.0566 2.81128 23.317C3.43628 22.5826 4.41545 22.2128 5.74878 22.2128H39.3946Z" fill="#353644"/>
</g>
<path d="M60.3102 31.0462C61.5602 31.0462 62.5498 31.3118 63.2894 31.8379C64.0238 32.3691 64.3936 33.2337 64.3936 34.442C64.3936 35.541 64.0238 36.416 63.2894 37.067C62.5498 37.7077 61.5602 38.0254 60.3102 38.0254C57.404 38.0254 55.3623 39.067 54.1852 41.1504C53.0186 43.2233 52.4352 46.0254 52.4352 49.567V62.692C52.4352 63.7077 52.0654 64.5462 51.3311 65.2129C50.5915 65.8795 49.6956 66.2129 48.6436 66.2129C47.4456 66.2129 46.4821 65.8795 45.7477 65.2129C45.0081 64.5462 44.6436 63.7077 44.6436 62.692V34.567C44.6436 33.4733 45.0654 32.6087 45.9144 31.9837C46.7581 31.3587 47.6696 31.0462 48.6436 31.0462C49.6123 31.0462 50.4873 31.3483 51.2686 31.942C52.0446 32.541 52.4352 33.416 52.4352 34.567V34.9837C53.4456 33.6504 54.6227 32.666 55.9561 32.0254C57.2998 31.3743 58.7529 31.0462 60.3102 31.0462Z" fill="#353644"/>
<path d="M94.4432 31.0462C95.6359 31.0462 96.5891 31.3795 97.2974 32.0462C98.0162 32.7129 98.3807 33.5827 98.3807 34.6504V62.6295C98.3807 63.6868 98.0162 64.5462 97.2974 65.2129C96.5891 65.8795 95.6359 66.2129 94.4432 66.2129C93.287 66.2129 92.3859 65.9525 91.7349 65.4212C91.0943 64.8952 90.7037 64.192 90.5682 63.317C88.9953 64.5566 87.2453 65.4629 85.3182 66.0462C83.3859 66.6139 81.5474 66.9004 79.7974 66.9004C76.4745 66.9004 73.6099 66.1452 71.1932 64.6295C68.7766 63.1035 66.9224 60.9577 65.6307 58.192C64.3391 55.4316 63.6932 52.2077 63.6932 48.5254C63.6932 44.9316 64.4068 41.7754 65.8391 39.067C67.2662 36.3483 69.2609 34.2129 71.8182 32.6712C74.3703 31.1295 77.3287 30.3587 80.6932 30.3587C82.162 30.3587 83.7974 30.64 85.5891 31.192C87.3912 31.7493 89.0526 32.6243 90.5682 33.817C90.7609 32.9837 91.1776 32.317 91.8182 31.817C92.4537 31.3066 93.3287 31.0462 94.4432 31.0462ZM80.6307 59.9212C82.6568 59.9212 84.6151 59.4785 86.5057 58.5879C88.3912 57.6868 89.7245 56.3587 90.5057 54.6087V42.6504C89.6307 40.9577 88.3182 39.6504 86.5682 38.7337C84.8182 37.8066 83.0474 37.3379 81.2557 37.3379C78.3495 37.3379 76.0109 38.4004 74.2349 40.5254C72.4537 42.64 71.5682 45.3275 71.5682 48.5879C71.5682 52.0045 72.3912 54.7493 74.0474 56.817C75.7141 58.89 77.9068 59.9212 80.6307 59.9212Z" fill="#353644"/>
<path d="M134.432 21.5253C135.401 21.5253 136.312 21.8066 137.161 22.3587C138.021 22.9003 138.453 23.7701 138.453 24.9628V62.692C138.453 65.041 137.109 66.2128 134.432 66.2128C132.042 66.2128 130.797 65.1087 130.703 62.9003C129.229 64.192 127.568 65.1712 125.724 65.8378C123.891 66.5045 122.141 66.8378 120.474 66.8378C117.026 66.8378 114.047 66.0566 111.536 64.4837C109.021 62.916 107.099 60.7285 105.766 57.9212C104.432 55.1191 103.766 51.8951 103.766 48.2545C103.766 44.7545 104.479 41.6712 105.911 39.0045C107.339 36.3274 109.333 34.2128 111.891 32.6712C114.443 31.1295 117.401 30.3587 120.766 30.3587C122.276 30.3587 123.911 30.6607 125.661 31.2545C127.411 31.8535 129.047 32.7493 130.578 33.942V24.9628C130.578 23.7701 130.979 22.9003 131.786 22.3587C132.589 21.8066 133.474 21.5253 134.432 21.5253ZM120.682 59.8587C122.984 59.8587 125.068 59.3482 126.932 58.317C128.807 57.2753 130.062 55.7649 130.703 53.7753L130.641 43.1295C129.859 41.2545 128.583 39.8274 126.807 38.8378C125.026 37.8378 123.193 37.3378 121.307 37.3378C118.401 37.3378 116.062 38.3899 114.286 40.4837C112.521 42.5826 111.641 45.192 111.641 48.317C111.641 51.6816 112.464 54.442 114.12 56.6087C115.786 58.7753 117.974 59.8587 120.682 59.8587Z" fill="#353644"/>
<path d="M152.595 25.8587C152.595 27.0149 152.168 27.8795 151.324 28.4628C150.475 29.0357 149.563 29.317 148.595 29.317C147.579 29.317 146.657 29.0357 145.824 28.4628C145.001 27.8795 144.595 27.0149 144.595 25.8587V24.9628C144.595 23.7701 145.001 22.9003 145.824 22.3587C146.657 21.8066 147.579 21.5253 148.595 21.5253C149.563 21.5253 150.475 21.8066 151.324 22.3587C152.168 22.9003 152.595 23.7701 152.595 24.9628V25.8587ZM144.657 34.442C144.657 33.3326 145.079 32.4941 145.928 31.9212C146.787 31.3378 147.678 31.0462 148.595 31.0462C149.563 31.0462 150.459 31.3378 151.282 31.9212C152.115 32.4941 152.532 33.3066 152.532 34.3587V62.8378C152.532 63.9785 152.115 64.8274 151.282 65.3795C150.459 65.9368 149.563 66.2128 148.595 66.2128C147.678 66.2128 146.787 65.9368 145.928 65.3795C145.079 64.8274 144.657 63.9785 144.657 62.8378V34.442Z" fill="#353644"/>
<path d="M173.319 30.3587C177.011 30.3587 180.24 31.1295 183.006 32.6712C185.767 34.2129 187.907 36.3691 189.423 39.1295C190.933 41.8952 191.694 45.1191 191.694 48.7962C191.652 52.3952 190.86 55.5566 189.319 58.2754C187.777 60.9837 185.631 63.1035 182.881 64.6295C180.142 66.1452 176.954 66.9004 173.319 66.9004C169.735 66.9004 166.558 66.1452 163.798 64.6295C161.032 63.1035 158.881 60.9837 157.339 58.2754C155.798 55.5566 154.996 52.3952 154.944 48.7962C154.944 45.1191 155.714 41.8952 157.256 39.1295C158.798 36.3691 160.949 34.2129 163.714 32.6712C166.475 31.1295 169.678 30.3587 173.319 30.3587ZM173.319 60.0045C176.454 60.0045 178.954 58.9733 180.819 56.9004C182.678 54.817 183.61 52.1191 183.61 48.7962C183.61 45.3952 182.678 42.6243 180.819 40.4837C178.954 38.3483 176.454 37.2754 173.319 37.2754C170.235 37.2754 167.746 38.3483 165.86 40.4837C163.97 42.6243 163.027 45.3952 163.027 48.7962C163.027 52.1191 163.97 54.817 165.86 56.9004C167.746 58.9733 170.235 60.0045 173.319 60.0045Z" fill="#353644"/>
</g>
</g>
</g>
</svg>
